<svg width="121" height="121" viewBox="0 0 121 121" fill="none" xmlns="http://www.w3.org/2000/svg">
<mask id="mask0_4983_1477" style="mask-type:alpha" maskUnits="userSpaceOnUse" x="0" y="0" width="121" height="121">
<g opacity="0.2" clip-path="url(#clip0_4983_1477)">
<path d="M106.691 0C107.008 0 107.266 0.250015 107.266 0.557176V12.1507H106.108V0.557176C106.116 0.250015 106.374 0 106.691 0Z" fill="#3266EB"/>
<path d="M107.982 1.28779V6.71668L115.107 3.35934L109.185 0.566316C108.631 0.302015 107.99 0.694895 107.99 1.28779H107.982Z" fill="#3266EB"/>
<path d="M121 8.56574V121.001H62.023C55.5101 121.001 50.2217 115.879 50.2217 109.572V77.1055C50.2217 39.2747 81.9376 8.55859 121 8.55859V8.56574Z" fill="#3266EB"/>
<path d="M73.6104 89.5341L121 121V85.0552L102.656 71.1973H73.6104V89.5341Z" fill="#215AD8"/>
<path d="M72.4082 71.1894V75.8825C72.4082 76.5256 72.9465 77.0469 73.6105 77.0469H77.0476C77.7116 77.0469 78.2498 76.5256 78.2498 75.8825V71.1894C78.2498 70.5463 77.7116 70.025 77.0476 70.025H73.6105C72.9465 70.025 72.4082 70.5463 72.4082 71.1894Z" fill="#E1FBFF"/>
<path d="M84.6084 71.1972V75.8903C84.6084 76.5334 85.1467 77.0547 85.8107 77.0547H89.2478C89.9118 77.0547 90.45 76.5334 90.45 75.8903V71.1972C90.45 70.5541 89.9118 70.0328 89.2478 70.0328H85.8107C85.1467 70.0328 84.6084 70.5541 84.6084 71.1972Z" fill="#E1FBFF"/>
<path d="M96.8145 71.1972V75.8903C96.8145 76.5334 97.3527 77.0547 98.0167 77.0547H101.454C102.118 77.0547 102.656 76.5334 102.656 75.8903V71.1972C102.656 70.5541 102.118 70.0328 101.454 70.0328H98.0167C97.3527 70.0328 96.8145 70.5541 96.8145 71.1972Z" fill="#E1FBFF"/>
<path d="M72.4082 83.6777V88.3708C72.4082 89.0139 72.9465 89.5352 73.6105 89.5352H77.0476C77.7116 89.5352 78.2498 89.0139 78.2498 88.3708V83.6777C78.2498 83.0346 77.7116 82.5133 77.0476 82.5133H73.6105C72.9465 82.5133 72.4082 83.0346 72.4082 83.6777Z" fill="#E1FBFF"/>
<path d="M84.6084 83.6777V88.3708C84.6084 89.0139 85.1467 89.5352 85.8107 89.5352H89.2478C89.9118 89.5352 90.45 89.0139 90.45 88.3708V83.6777C90.45 83.0346 89.9118 82.5133 89.2478 82.5133H85.8107C85.1467 82.5133 84.6084 83.0346 84.6084 83.6777Z" fill="#E1FBFF"/>
<path d="M96.8145 83.6777V88.3708C96.8145 89.0139 97.3527 89.5352 98.0167 89.5352H101.454C102.118 89.5352 102.656 89.0139 102.656 88.3708V83.6777C102.656 83.0346 102.118 82.5133 101.454 82.5133H98.0167C97.3527 82.5133 96.8145 83.0346 96.8145 83.6777Z" fill="#E1FBFF"/>
<path d="M102.656 8.56445H11.8013C5.28107 8.56445 0 13.679 0 19.9937V72.4539C1.72594 68.3108 5.29582 64.5535 11.9045 64.5535H48.5844C52.5673 37.7447 74.8865 14.3719 102.656 8.56445Z" fill="#2DB9EA"/>
<path d="M23.6475 36.5106C25.2321 36.5106 26.5167 35.2665 26.5167 33.7319C26.5167 32.1972 25.2321 30.9531 23.6475 30.9531C22.0629 30.9531 20.7783 32.1972 20.7783 33.7319C20.7783 35.2665 22.0629 36.5106 23.6475 36.5106Z" fill="white"/>
<path d="M33.7227 36.5106C35.3073 36.5106 36.5919 35.2665 36.5919 33.7319C36.5919 32.1972 35.3073 30.9531 33.7227 30.9531C32.1381 30.9531 30.8535 32.1972 30.8535 33.7319C30.8535 35.2665 32.1381 36.5106 33.7227 36.5106Z" fill="white"/>
<path d="M43.7618 36.5106C45.3464 36.5106 46.631 35.2665 46.631 33.7319C46.631 32.1972 45.3464 30.9531 43.7618 30.9531C42.1772 30.9531 40.8926 32.1972 40.8926 33.7319C40.8926 35.2665 42.1772 36.5106 43.7618 36.5106Z" fill="white"/>
</g>
</mask>
<g mask="url(#mask0_4983_1477)">
<g filter="url(#filter0_d_4983_1477)">
<rect x="-315.713" y="-6.95312" width="436.713" height="127.954" rx="10" fill="white"/>
</g>
</g>
<defs>
<filter id="filter0_d_4983_1477" x="-319.713" y="-10.9531" width="444.713" height="135.953" filterUnits="userSpaceOnUse" color-interpolation-filters="sRGB">
<feFlood flood-opacity="0" result="BackgroundImageFix"/>
<feColorMatrix in="SourceAlpha" type="matrix" values="0 0 0 0 0 0 0 0 0 0 0 0 0 0 0 0 0 0 127 0" result="hardAlpha"/>
<feOffset/>
<feGaussianBlur stdDeviation="2"/>
<feComposite in2="hardAlpha" operator="out"/>
<feColorMatrix type="matrix" values="0 0 0 0 0 0 0 0 0 0 0 0 0 0 0 0 0 0 0.1 0"/>
<feBlend mode="normal" in2="BackgroundImageFix" result="effect1_dropShadow_4983_1477"/>
<feBlend mode="normal" in="SourceGraphic" in2="effect1_dropShadow_4983_1477" result="shape"/>
</filter>
<clipPath id="clip0_4983_1477">
<rect width="121" height="121" fill="white"/>
</clipPath>
</defs>
</svg>
