<svg width="166" height="166" viewBox="0 0 166 166" fill="none" xmlns="http://www.w3.org/2000/svg">
<path d="M76.3018 95.1977C76.0083 104.277 68.5268 115.496 64.0589 102.562C59.5909 89.6274 53.401 82.9613 65.6765 81.5915C77.952 80.2218 76.5301 87.8989 76.2953 95.2042L76.3018 95.1977Z" fill="#033791"/>
<path d="M58.1292 71.5454C60.5175 71.5454 62.4536 69.6093 62.4536 67.221C62.4536 64.8326 60.5175 62.8965 58.1292 62.8965C55.7408 62.8965 53.8047 64.8326 53.8047 67.221C53.8047 69.6093 55.7408 71.5454 58.1292 71.5454Z" fill="#033791"/>
<path d="M71.4749 71.5454C73.8632 71.5454 75.7994 69.6093 75.7994 67.221C75.7994 64.8326 73.8632 62.8965 71.4749 62.8965C69.0865 62.8965 67.1504 64.8326 67.1504 67.221C67.1504 69.6093 69.0865 71.5454 71.4749 71.5454Z" fill="#033791"/>
<path d="M64.3647 13.1831C53.9872 6.99968 31.8235 15.029 29.6188 33.8597C29.1101 38.1907 30.0885 45.4373 34.3412 50.4597C38.1113 54.9081 43.0749 57.3606 45.2665 55.1299C45.2665 55.1299 43.1141 57.0149 41.4965 54.732C40.3289 53.0818 40.6029 49.4683 42.214 47.2832C47.4712 40.1671 54.8678 45.9461 66.0214 33.6053C69.4132 29.8483 73.5355 18.649 64.3647 13.1831Z" fill="#3266EB"/>
<path d="M83.0002 0.410156C82.4914 0.410156 81.9761 0.423201 81.4674 0.429724C57.3077 10.7159 56.7663 36.6758 63.4259 31.0924C77.7625 19.0843 79.0018 66.047 104.381 76.2418C129.761 86.4366 142.852 71.0825 142.852 92.9397C142.852 114.797 110.239 146.086 68.3374 125.253C44.6147 113.46 24.8252 113.192 8.62305 118.932C21.9878 146.542 50.2698 165.582 83.0002 165.582C128.613 165.582 165.589 128.605 165.589 82.9927C165.589 37.3802 128.613 0.410156 83.0002 0.410156Z" fill="#3266EB"/>
<circle r="83" transform="matrix(-1 0 0 1 83 83)" fill="#2F2F2F" fill-opacity="0.53"/>
<path d="M95.75 65V70.25V65ZM95.75 75.5V70.25V75.5ZM95.75 70.25H101H95.75ZM95.75 70.25H90.5H95.75Z" fill="#EFEFEF"/>
<path d="M95.75 70.25H90.5M95.75 65V70.25V65ZM95.75 75.5V70.25V75.5ZM95.75 70.25H101H95.75Z" stroke="#EFEFEF" stroke-width="2" stroke-linecap="round" stroke-linejoin="round"/>
<path fill-rule="evenodd" clip-rule="evenodd" d="M85.25 65H71.25C69.8576 65 68.5223 65.5531 67.5377 66.5377C66.5531 67.5223 66 68.8576 66 70.25V88.625C66 88.7755 66.0193 88.9225 66.056 89.0625C66.019 89.2054 66.0001 89.3524 66 89.5V94.75C66 96.1424 66.5531 97.4777 67.5377 98.4623C68.5223 99.4469 69.8576 100 71.25 100H95.75C97.1424 100 98.4777 99.4469 99.4623 98.4623C100.447 97.4777 101 96.1424 101 94.75V82.5C101 82.3524 100.981 82.2054 100.944 82.0625C100.981 81.9196 101 81.7726 101 81.625V80.75H97.5V80.778C89.9802 81.0212 84.55 82.8325 80.735 85.3682C82.1805 85.881 83.7975 86.6108 85.383 87.5662C87.8313 89.0363 90.3197 91.1013 91.9945 93.8365C92.1145 94.0325 92.1946 94.2503 92.2305 94.4773C92.2663 94.7043 92.257 94.9362 92.2032 95.1596C92.1494 95.383 92.0522 95.5937 91.917 95.7795C91.7818 95.9654 91.6113 96.1228 91.4153 96.2428C91.2192 96.3627 91.0015 96.4429 90.7745 96.4787C90.5474 96.5145 90.3156 96.5053 90.0922 96.4515C89.8687 96.3977 89.6581 96.3004 89.4722 96.1652C89.2864 96.03 89.129 95.8595 89.009 95.6635C87.721 93.5582 85.7225 91.852 83.5805 90.5657C81.442 89.2812 79.2667 88.4797 77.7582 88.1297C75.6332 87.6445 73.4574 87.4177 71.278 87.4543H71.2395C70.6305 87.463 70.0495 87.4893 69.5 87.533V70.25C69.5 69.7859 69.6844 69.3408 70.0126 69.0126C70.3408 68.6844 70.7859 68.5 71.25 68.5H85.25V65ZM77.375 72C76.421 72.0071 75.4918 72.3051 74.7115 72.854C73.714 73.5715 73 74.7545 73 76.375C73 77.9955 73.714 79.1767 74.7115 79.8942C75.4913 80.4444 76.4207 80.743 77.375 80.75C78.0925 80.75 79.1303 80.5487 80.0385 79.8942C81.036 79.1767 81.75 77.9955 81.75 76.375C81.75 74.7545 81.036 73.5732 80.0385 72.854C79.2585 72.3044 78.3291 72.0065 77.375 72Z" fill="#EFEFEF"/>
<circle r="78.5" transform="matrix(-1 0 0 1 83 83)" stroke="white"/>
</svg>
