<svg width="26" height="20" viewBox="0 0 26 20" fill="none" xmlns="http://www.w3.org/2000/svg">
<mask id="path-1-outside-1_2395_2019" maskUnits="userSpaceOnUse" x="-0.117188" y="0" width="26" height="13" fill="black">
<rect fill="white" x="-0.117188" width="26" height="13"/>
<path d="M16.7775 10.5003H23.6609C23.6609 10.5003 23.8023 10.4151 23.774 10.3298L20.8618 2.85288C20.6639 2.34115 20.155 2 19.5895 2H5.96141C5.39593 2 4.887 2.34115 4.68908 2.85288L1.99902 10C1.99902 10 1.80514 10.5003 1.91823 10.5003H8.02712"/>
</mask>
<path d="M23.6609 10.5003V12.2003H24.134L24.5391 11.956L23.6609 10.5003ZM23.774 10.3298L25.3877 9.79483L25.3739 9.75342L25.3581 9.71278L23.774 10.3298ZM20.8618 2.85288L19.2763 3.46611L19.2777 3.46987L20.8618 2.85288ZM4.68908 2.85288L3.10354 2.23965L3.10076 2.24683L3.09805 2.25404L4.68908 2.85288ZM1.99902 10L3.58417 10.6142L3.58715 10.6066L3.59006 10.5988L1.99902 10ZM16.7775 12.2003H23.6609V8.80035H16.7775V12.2003ZM23.6609 10.5003C24.5391 11.956 24.5395 11.9557 24.5399 11.9555C24.54 11.9554 24.5404 11.9552 24.5406 11.955C24.5411 11.9547 24.5416 11.9544 24.5422 11.9541C24.5432 11.9535 24.5443 11.9528 24.5453 11.9522C24.5475 11.9509 24.5497 11.9495 24.5519 11.9482C24.5564 11.9454 24.5612 11.9424 24.5662 11.9393C24.5762 11.933 24.5872 11.926 24.5992 11.9181C24.6228 11.9026 24.6514 11.8832 24.6832 11.86C24.7421 11.8171 24.8344 11.7454 24.9335 11.6458C25.0223 11.5565 25.1856 11.3767 25.3103 11.1081C25.4439 10.8201 25.5687 10.341 25.3877 9.79483L22.1604 10.8647C21.9934 10.3612 22.1112 9.92469 22.2263 9.67674C22.3324 9.44807 22.4657 9.30558 22.5227 9.24826C22.59 9.18063 22.6487 9.1356 22.6819 9.11139C22.701 9.09753 22.7187 9.08542 22.7347 9.07491C22.7429 9.06957 22.7509 9.06443 22.7588 9.05945C22.7628 9.05696 22.7668 9.05449 22.7708 9.05204C22.7727 9.05082 22.7747 9.04959 22.7767 9.04838C22.7777 9.04777 22.7787 9.04716 22.7797 9.04655C22.7802 9.04625 22.7807 9.04595 22.7812 9.04564C22.7815 9.04549 22.7819 9.04526 22.782 9.04519C22.7824 9.04496 22.7828 9.04473 23.6609 10.5003ZM25.3581 9.71278L22.4459 2.23588L19.2777 3.46987L22.1899 10.9468L25.3581 9.71278ZM22.4473 2.23965C21.9859 1.04664 20.8286 0.3 19.5895 0.3V3.7C19.4813 3.7 19.3418 3.63566 19.2763 3.46611L22.4473 2.23965ZM19.5895 0.3H5.96141V3.7H19.5895V0.3ZM5.96141 0.3C4.72232 0.3 3.56495 1.04664 3.10354 2.23965L6.27463 3.46611C6.20905 3.63566 6.06955 3.7 5.96141 3.7V0.3ZM3.09805 2.25404L0.407989 9.40116L3.59006 10.5988L6.28012 3.45172L3.09805 2.25404ZM1.99902 10C0.413874 9.38575 0.413815 9.3859 0.413754 9.38606C0.413733 9.38612 0.413671 9.38627 0.413629 9.38638C0.413544 9.3866 0.413456 9.38683 0.413364 9.38707C0.413181 9.38754 0.412986 9.38805 0.412778 9.38859C0.412361 9.38967 0.411895 9.39088 0.41138 9.39222C0.410351 9.3949 0.409127 9.3981 0.407725 9.40179C0.404924 9.40916 0.401387 9.41855 0.397253 9.42968C0.389043 9.45179 0.378171 9.48161 0.365852 9.51683C0.342572 9.58337 0.308194 9.68601 0.276853 9.80019C0.253959 9.8836 0.196934 10.0964 0.185137 10.3399C0.180586 10.4338 0.166792 10.7534 0.3128 11.1151C0.395111 11.3191 0.557159 11.6076 0.867873 11.8452C1.19863 12.0981 1.57679 12.2003 1.91823 12.2003V8.80035C2.24554 8.80035 2.61196 8.8987 2.93313 9.14429C3.23426 9.37455 3.38888 9.65232 3.46567 9.84256C3.54126 10.0298 3.56552 10.1898 3.57488 10.2813C3.58485 10.3788 3.58346 10.4568 3.58115 10.5044C3.5739 10.6541 3.54414 10.7418 3.55558 10.7002C3.55858 10.6892 3.5656 10.6668 3.57514 10.6395C3.57923 10.6278 3.58262 10.6186 3.58457 10.6133C3.58552 10.6108 3.58604 10.6094 3.58602 10.6094C3.58601 10.6095 3.58586 10.6099 3.58556 10.6107C3.58541 10.611 3.58522 10.6115 3.58499 10.6121C3.58487 10.6124 3.58475 10.6128 3.58461 10.6131C3.58454 10.6133 3.58447 10.6135 3.5844 10.6137C3.58436 10.6138 3.58431 10.6139 3.58429 10.614C3.58423 10.6141 3.58417 10.6142 1.99902 10ZM1.91823 12.2003H8.02712V8.80035H1.91823V12.2003Z" fill="#2F2F2F" mask="url(#path-1-outside-1_2395_2019)"/>
<path d="M16.0215 10.499C16.0215 12.2659 14.5766 13.6851 12.7778 13.6851C10.979 13.6851 9.53409 12.2659 9.53409 10.499H1.27734V18.6091C1.27734 19.3622 1.8966 19.9994 2.69279 19.9994H22.8628C23.6295 19.9994 24.2783 19.3912 24.2783 18.6091V10.499H16.051H16.0215Z" fill="#2F2F2F"/>
</svg>
