<svg width="37" height="37" viewBox="0 0 37 37" fill="none" xmlns="http://www.w3.org/2000/svg">
<path d="M14.7164 8.2957C14.7164 7.68258 14.2194 7.18555 13.6062 7.18555C12.9931 7.18555 12.4961 7.68258 12.4961 8.2957V30.1463C12.4961 30.7594 12.9931 31.2565 13.6062 31.2565C14.2194 31.2565 14.7164 30.7594 14.7164 30.1463V8.2957Z" fill="#9ED1EE"/>
<path d="M27.0998 17.8253C28.4774 16.367 28.6133 14.0788 27.2654 12.5951C26.2508 11.4785 24.7713 11.1241 23.4595 11.487C23.2706 11.5401 23.0944 11.3851 23.1199 11.192C23.3024 9.84197 22.7505 8.42403 21.5066 7.57073C19.8531 6.43511 17.6052 6.88086 16.3465 8.44102C15.7415 9.19031 15.3361 10.1391 15.334 11.2493C15.3297 12.8837 15.3106 16.8467 15.2979 19.0203C15.2936 19.8036 15.9856 20.4064 16.7604 20.2982C18.9106 19.9925 22.8354 19.4364 24.455 19.2114C25.5545 19.0585 26.4397 18.5279 27.0998 17.8274V17.8253Z" fill="#9ED1EE"/>
</svg>
