<svg width="21" height="21" viewBox="0 0 21 21" fill="none" xmlns="http://www.w3.org/2000/svg">
<g opacity="0.8" filter="url(#filter0_bd_489_1342)">
<path d="M10.4779 10.3658C12.9384 10.3658 14.9331 8.40175 14.9331 5.97902C14.9331 3.55629 12.9384 1.59229 10.4779 1.59229C8.01736 1.59229 6.02271 3.55629 6.02271 5.97902C6.02271 8.40175 8.01736 10.3658 10.4779 10.3658Z" fill="url(#paint0_linear_489_1342)" fill-opacity="0.7"/>
</g>
<g opacity="0.85" filter="url(#filter1_bd_489_1342)">
<path d="M10.4994 9.16089C14.8861 9.16089 18.4467 12.6682 18.4467 16.9861V18.3047C18.4467 18.8191 18.0236 19.2357 17.5012 19.2357H3.49757C2.97509 19.2357 2.552 18.8191 2.552 18.3047V16.9861C2.552 12.6668 6.11401 9.16089 10.4994 9.16089Z" fill="url(#paint1_linear_489_1342)" fill-opacity="0.5"/>
</g>
<defs>
<filter id="filter0_bd_489_1342" x="-3.97729" y="-8.40771" width="28.9104" height="28.7734" filterUnits="userSpaceOnUse" color-interpolation-filters="sRGB">
<feFlood flood-opacity="0" result="BackgroundImageFix"/>
<feGaussianBlur in="BackgroundImage" stdDeviation="5"/>
<feComposite in2="SourceAlpha" operator="in" result="effect1_backgroundBlur_489_1342"/>
<feColorMatrix in="SourceAlpha" type="matrix" values="0 0 0 0 0 0 0 0 0 0 0 0 0 0 0 0 0 0 127 0" result="hardAlpha"/>
<feOffset/>
<feGaussianBlur stdDeviation="0.75"/>
<feColorMatrix type="matrix" values="0 0 0 0 0.160784 0 0 0 0 0.670588 0 0 0 0 0.886275 0 0 0 0.45 0"/>
<feBlend mode="normal" in2="effect1_backgroundBlur_489_1342" result="effect2_dropShadow_489_1342"/>
<feBlend mode="normal" in="SourceGraphic" in2="effect2_dropShadow_489_1342" result="shape"/>
</filter>
<filter id="filter1_bd_489_1342" x="-1.448" y="5.16089" width="23.8948" height="18.0747" filterUnits="userSpaceOnUse" color-interpolation-filters="sRGB">
<feFlood flood-opacity="0" result="BackgroundImageFix"/>
<feGaussianBlur in="BackgroundImage" stdDeviation="2"/>
<feComposite in2="SourceAlpha" operator="in" result="effect1_backgroundBlur_489_1342"/>
<feColorMatrix in="SourceAlpha" type="matrix" values="0 0 0 0 0 0 0 0 0 0 0 0 0 0 0 0 0 0 127 0" result="hardAlpha"/>
<feOffset/>
<feGaussianBlur stdDeviation="0.75"/>
<feColorMatrix type="matrix" values="0 0 0 0 0.160784 0 0 0 0 0.670588 0 0 0 0 0.886275 0 0 0 0.75 0"/>
<feBlend mode="normal" in2="effect1_backgroundBlur_489_1342" result="effect2_dropShadow_489_1342"/>
<feBlend mode="normal" in="SourceGraphic" in2="effect2_dropShadow_489_1342" result="shape"/>
</filter>
<linearGradient id="paint0_linear_489_1342" x1="6.02271" y1="5.97902" x2="14.9331" y2="5.97902" gradientUnits="userSpaceOnUse">
<stop stop-color="white"/>
<stop offset="1" stop-color="#29ABE2"/>
</linearGradient>
<linearGradient id="paint1_linear_489_1342" x1="2.5426" y1="18.2425" x2="17.3444" y2="12.5332" gradientUnits="userSpaceOnUse">
<stop stop-color="white"/>
<stop offset="1" stop-color="#29ABE2"/>
</linearGradient>
</defs>
</svg>
