<svg width="22" height="22" viewBox="0 0 22 22" fill="none" xmlns="http://www.w3.org/2000/svg">
<path d="M17.8502 4.15H14.7002M17.8502 1V4.15V1ZM17.8502 7.3V4.15V7.3ZM17.8502 4.15H21.0002H17.8502Z" stroke="#29ABE2" stroke-width="2" stroke-linecap="round" stroke-linejoin="round"/>
<path fill-rule="evenodd" clip-rule="evenodd" d="M11.55 1H3.15C2.31457 1 1.51335 1.33187 0.922614 1.92261C0.331874 2.51335 0 3.31457 0 4.15V15.175C0 15.2653 0.0115501 15.3535 0.0336001 15.4375C0.011374 15.5232 8.43106e-05 15.6114 0 15.7V18.85C0 19.6854 0.331874 20.4866 0.922614 21.0774C1.51335 21.6681 2.31457 22 3.15 22H17.85C18.6854 22 19.4866 21.6681 20.0774 21.0774C20.6681 20.4866 21 19.6854 21 18.85V11.5C20.9999 11.4114 20.9886 11.3232 20.9664 11.2375C20.9886 11.1518 20.9999 11.0636 21 10.975V10.45H18.9V10.4668C14.3881 10.6127 11.13 11.6995 8.841 13.2209C9.7083 13.5286 10.6785 13.9664 11.6298 14.5398C13.0988 15.4218 14.5918 16.6608 15.5967 18.3019C15.6687 18.4195 15.7168 18.5502 15.7383 18.6864C15.7598 18.8226 15.7542 18.9617 15.7219 19.0958C15.6897 19.2298 15.6313 19.3562 15.5502 19.4677C15.4691 19.5792 15.3668 19.6737 15.2492 19.7456C15.1315 19.8176 15.0009 19.8657 14.8647 19.8872C14.7285 19.9087 14.5894 19.9032 14.4553 19.8709C14.3212 19.8386 14.1948 19.7802 14.0833 19.6991C13.9718 19.618 13.8774 19.5157 13.8054 19.3981C13.0326 18.1349 11.8335 17.1112 10.5483 16.3394C9.2652 15.5687 7.96005 15.0878 7.05495 14.8778C5.77995 14.5867 4.47444 14.4506 3.1668 14.4725H3.1437C2.7783 14.4778 2.4297 14.4935 2.1 14.5198V4.15C2.1 3.87152 2.21062 3.60445 2.40754 3.40754C2.60445 3.21062 2.87152 3.1 3.15 3.1H11.55V1ZM6.825 5.2C6.25258 5.20428 5.69508 5.38303 5.2269 5.7124C4.6284 6.1429 4.2 6.8527 4.2 7.825C4.2 8.7973 4.6284 9.50605 5.2269 9.93655C5.69478 10.2667 6.25241 10.4458 6.825 10.45C7.2555 10.45 7.87815 10.3292 8.4231 9.93655C9.0216 9.50605 9.45 8.7973 9.45 7.825C9.45 6.8527 9.0216 6.14395 8.4231 5.7124C7.9551 5.38267 7.39748 5.20388 6.825 5.2Z" fill="#29ABE2"/>
</svg>
