<svg width="73" height="61" viewBox="0 0 73 61" fill="none" xmlns="http://www.w3.org/2000/svg">
<mask id="mask0_4726_337" style="mask-type:alpha" maskUnits="userSpaceOnUse" x="0" y="0" width="73" height="61">
<rect width="73" height="61" rx="5" fill="white"/>
</mask>
<g mask="url(#mask0_4726_337)">
<path d="M59.085 62.5C62.9398 61.4935 74.5438 66.0684 77.085 63C79.6261 59.9316 81.3145 57.4748 81.585 53.5L56.9311 31.875L56.9512 41.2533L50.8442 31.875L50.5204 34.5657L48.4371 31.875L48.3075 34.5657L46.126 31.875V40.5834L48.1847 41.0747L47.4546 54.7424L59.085 62.5Z" fill="#9ED1EE"/>
</g>
<path d="M50.4729 31.7266H50.2697C50.1967 31.7257 50.1243 31.7393 50.0566 31.7666C49.9889 31.794 49.9273 31.8345 49.8754 31.8858C49.8235 31.9371 49.7822 31.9982 49.7541 32.0655C49.726 32.1329 49.7115 32.2051 49.7115 32.2781V39.6736C49.7115 39.8199 49.6534 39.9602 49.5499 40.0636C49.4465 40.167 49.3062 40.2251 49.1599 40.2251C49.0874 40.2254 49.0156 40.2114 48.9485 40.1838C48.8815 40.1561 48.8206 40.1155 48.7693 40.0643C48.718 40.013 48.6774 39.9521 48.6498 39.885C48.6222 39.818 48.6081 39.7461 48.6084 39.6736V32.2781C48.6084 32.1319 48.5503 31.9916 48.4469 31.8881C48.3434 31.7847 48.2032 31.7266 48.0569 31.7266H47.8537C47.7074 31.7266 47.5671 31.7847 47.4637 31.8881C47.3603 31.9916 47.3022 32.1319 47.3022 32.2781V39.7339C47.2993 39.8637 47.2463 39.9873 47.1543 40.0789C47.0623 40.1704 46.9385 40.2229 46.8087 40.2251C46.677 40.2258 46.5503 40.1746 46.4559 40.0827C46.3615 39.9909 46.307 39.8656 46.304 39.7339V32.2781C46.3043 32.2056 46.2903 32.1338 46.2627 32.0667C46.235 31.9997 46.1944 31.9388 46.1431 31.8875C46.0919 31.8362 46.031 31.7956 45.9639 31.768C45.8969 31.7404 45.825 31.7263 45.7525 31.7266H45.5515C45.4053 31.7266 45.265 31.7847 45.1615 31.8881C45.0581 31.9916 45 32.1319 45 32.2781V40.9866C45 41.133 45.058 41.2736 45.1614 41.3774C45.2648 41.4811 45.4051 41.5397 45.5515 41.5403H46.7573C46.8298 41.54 46.9017 41.5541 46.9687 41.5817C47.0358 41.6093 47.0967 41.6499 47.148 41.7012C47.1992 41.7525 47.2399 41.8134 47.2675 41.8805C47.2951 41.9475 47.3091 42.0194 47.3088 42.0919V54.3841C47.3135 54.5273 47.3736 54.663 47.4766 54.7626C47.5795 54.8622 47.7171 54.9179 47.8604 54.9178H48.0636C48.2099 54.9178 48.3501 54.8597 48.4536 54.7563C48.557 54.6528 48.6151 54.5126 48.6151 54.3663V42.0852C48.6148 42.0127 48.6289 41.9408 48.6565 41.8738C48.6841 41.8067 48.7247 41.7458 48.776 41.6945C48.8273 41.6432 48.8882 41.6026 48.9552 41.575C49.0223 41.5474 49.0941 41.5333 49.1666 41.5336H50.4796C50.5522 41.5336 50.6241 41.5193 50.6912 41.4914C50.7583 41.4636 50.8192 41.4228 50.8704 41.3713C50.9216 41.3199 50.9622 41.2588 50.9898 41.1916C51.0174 41.1244 51.0314 41.0525 51.0311 40.9799V32.2714C51.0303 32.199 51.0151 32.1275 50.9866 32.0609C50.9581 31.9943 50.9167 31.934 50.8649 31.8834C50.813 31.8328 50.7517 31.7929 50.6845 31.766C50.6172 31.7391 50.5453 31.7257 50.4729 31.7266Z" fill="white"/>
<path d="M56.5197 54.9178C56.6926 54.9178 56.8585 54.8491 56.9807 54.7268C57.103 54.6045 57.1717 54.4387 57.1717 54.2658V32.3786C57.1717 32.2057 57.103 32.0398 56.9807 31.9175C56.8585 31.7953 56.6926 31.7266 56.5197 31.7266H55.8654C55.8654 31.7266 52.9023 31.8427 52.9023 36.639C52.9023 40.6985 55.8654 41.8931 55.8654 41.8931V54.2658C55.866 54.4389 55.9352 54.6047 56.0579 54.7269C56.1805 54.8492 56.3466 54.9178 56.5197 54.9178Z" fill="white"/>
</svg>
