<?xml version="1.0" encoding="UTF-8"?><svg id="Layer_1" xmlns="http://www.w3.org/2000/svg" viewBox="0 0 107.47 94.18"><defs><style>.cls-1{fill:#3266eb;}.cls-2{fill:#dcf8ff;}.cls-3{fill:#29abe2;}</style></defs><circle class="cls-2" cx="39.52" cy="39.68" r="32.08"/><path class="cls-3" d="M41.57,22.57l-.29-.08c-.44-.12-.9,.14-1.02,.58l-2.94,10.76c-.12,.44-.58,.7-1.02,.58h0c-.44-.12-.7-.58-.58-1.02l2.94-10.76c.12-.44-.14-.9-.58-1.02l-.29-.08c-.44-.12-.9,.14-1.02,.58l-2.95,10.84c-.11,.4-.53,.64-.93,.53h0c-.4-.11-.64-.53-.53-.93l2.95-10.84c.12-.44-.14-.9-.58-1.02l-.29-.08c-.44-.12-.9,.14-1.02,.58l-3.45,12.66c-.12,.44,.14,.9,.58,1.02l1.76,.48c.44,.12,.7,.58,.58,1.02l.07-.26-4.95,18.16c-.12,.44,.14,.9,.58,1.02l.29,.08c.44,.12,.9-.14,1.02-.58l4.88-17.89c.12-.44,.58-.7,1.02-.58l1.91,.52c.44,.12,.9-.14,1.02-.59l3.44-12.67c.12-.44-.14-.9-.58-1.02Z"/><path class="cls-3" d="M41.16,58.73h0c.52,.14,1.07-.17,1.21-.69l8.69-31.87c.14-.52-.17-1.07-.69-1.21l-.95-.26s-4.36-1.01-6.27,5.99c-1.61,5.91,2.23,8.82,2.23,8.82l-4.91,18.01c-.14,.52,.17,1.07,.69,1.21Z"/><g><circle class="cls-1" cx="74.24" cy="39.32" r="13.74"/><path class="cls-1" d="M84.08,51.79c-2.71,2.13-6.13,3.4-9.84,3.4s-7.09-1.26-9.8-3.37c-9.6,3.9-16.37,12.52-16.37,23.52v4.42c0,1.72,1.4,3.12,3.12,3.12h46.23c1.72,0,3.12-1.4,3.12-3.12v-4.42c0-11.04-6.82-19.68-16.46-23.56Z"/></g></svg>