<svg width="22" height="22" viewBox="0 0 22 22" fill="none" xmlns="http://www.w3.org/2000/svg">
<g clip-path="url(#clip0_489_1350)">
<g opacity="0.5" filter="url(#filter0_bd_489_1350)">
<path d="M15.2847 9.70264H20.787C21.0932 9.70264 21.3413 9.95125 21.3413 10.2581V13.9556C21.3413 15.7832 19.8605 17.267 18.0365 17.267C16.2125 17.267 14.7317 15.7832 14.7317 13.9556V10.2581C14.7317 9.95125 14.9798 9.70264 15.286 9.70264H15.2847Z" fill="url(#paint0_linear_489_1350)" fill-opacity="0.5"/>
</g>
<g opacity="0.5" filter="url(#filter1_bd_489_1350)">
<path d="M1.21414 9.70264H6.71644C7.02264 9.70264 7.27077 9.95125 7.27077 10.2581V13.9556C7.27077 15.7832 5.78993 17.267 3.96595 17.267C2.14197 17.267 0.661133 15.7832 0.661133 13.9556V10.2581C0.661133 9.95125 0.909258 9.70264 1.21546 9.70264H1.21414Z" fill="url(#paint1_linear_489_1350)" fill-opacity="0.5"/>
</g>
<g opacity="0.7" filter="url(#filter2_bd_489_1350)">
<path d="M18.0352 8.77703C19.0732 8.77703 19.9146 7.93392 19.9146 6.89389C19.9146 5.85386 19.0732 5.01074 18.0352 5.01074C16.9972 5.01074 16.1558 5.85386 16.1558 6.89389C16.1558 7.93392 16.9972 8.77703 18.0352 8.77703Z" fill="url(#paint2_linear_489_1350)" fill-opacity="0.4"/>
</g>
<g filter="url(#filter3_d_489_1350)">
<path d="M11.0562 7.52468C12.5825 7.52468 13.8199 6.28488 13.8199 4.7555C13.8199 3.22613 12.5825 1.98633 11.0562 1.98633C9.52983 1.98633 8.29248 3.22613 8.29248 4.7555C8.29248 6.28488 9.52983 7.52468 11.0562 7.52468Z" fill="url(#paint3_linear_489_1350)" fill-opacity="0.6"/>
</g>
<g opacity="0.8" filter="url(#filter4_bd_489_1350)">
<path d="M6.68759 8.44385H15.4261C15.9118 8.44385 16.3064 8.83925 16.3064 9.32591V15.1975C16.3064 18.1003 13.9545 20.4568 11.0575 20.4568C8.1605 20.4568 5.80859 18.1003 5.80859 15.1975V9.32591C5.80859 8.83925 6.20322 8.44385 6.68891 8.44385H6.68759Z" fill="url(#paint4_linear_489_1350)" fill-opacity="0.4"/>
</g>
<g opacity="0.7" filter="url(#filter5_bd_489_1350)">
<path d="M3.96462 8.77703C5.0026 8.77703 5.84404 7.93392 5.84404 6.89389C5.84404 5.85386 5.0026 5.01074 3.96462 5.01074C2.92665 5.01074 2.08521 5.85386 2.08521 6.89389C2.08521 7.93392 2.92665 8.77703 3.96462 8.77703Z" fill="url(#paint5_linear_489_1350)" fill-opacity="0.4"/>
</g>
</g>
<defs>
<filter id="filter0_bd_489_1350" x="9.73169" y="4.70264" width="16.6096" height="17.5642" filterUnits="userSpaceOnUse" color-interpolation-filters="sRGB">
<feFlood flood-opacity="0" result="BackgroundImageFix"/>
<feGaussianBlur in="BackgroundImage" stdDeviation="2.5"/>
<feComposite in2="SourceAlpha" operator="in" result="effect1_backgroundBlur_489_1350"/>
<feColorMatrix in="SourceAlpha" type="matrix" values="0 0 0 0 0 0 0 0 0 0 0 0 0 0 0 0 0 0 127 0" result="hardAlpha"/>
<feOffset/>
<feGaussianBlur stdDeviation="0.75"/>
<feColorMatrix type="matrix" values="0 0 0 0 0.160784 0 0 0 0 0.670588 0 0 0 0 0.886275 0 0 0 0.75 0"/>
<feBlend mode="normal" in2="effect1_backgroundBlur_489_1350" result="effect2_dropShadow_489_1350"/>
<feBlend mode="normal" in="SourceGraphic" in2="effect2_dropShadow_489_1350" result="shape"/>
</filter>
<filter id="filter1_bd_489_1350" x="-4.33887" y="4.70264" width="16.6096" height="17.5642" filterUnits="userSpaceOnUse" color-interpolation-filters="sRGB">
<feFlood flood-opacity="0" result="BackgroundImageFix"/>
<feGaussianBlur in="BackgroundImage" stdDeviation="2.5"/>
<feComposite in2="SourceAlpha" operator="in" result="effect1_backgroundBlur_489_1350"/>
<feColorMatrix in="SourceAlpha" type="matrix" values="0 0 0 0 0 0 0 0 0 0 0 0 0 0 0 0 0 0 127 0" result="hardAlpha"/>
<feOffset/>
<feGaussianBlur stdDeviation="0.75"/>
<feColorMatrix type="matrix" values="0 0 0 0 0.160784 0 0 0 0 0.670588 0 0 0 0 0.886275 0 0 0 0.75 0"/>
<feBlend mode="normal" in2="effect1_backgroundBlur_489_1350" result="effect2_dropShadow_489_1350"/>
<feBlend mode="normal" in="SourceGraphic" in2="effect2_dropShadow_489_1350" result="shape"/>
</filter>
<filter id="filter2_bd_489_1350" x="11.1558" y="0.0107422" width="13.7588" height="13.7664" filterUnits="userSpaceOnUse" color-interpolation-filters="sRGB">
<feFlood flood-opacity="0" result="BackgroundImageFix"/>
<feGaussianBlur in="BackgroundImage" stdDeviation="2.5"/>
<feComposite in2="SourceAlpha" operator="in" result="effect1_backgroundBlur_489_1350"/>
<feColorMatrix in="SourceAlpha" type="matrix" values="0 0 0 0 0 0 0 0 0 0 0 0 0 0 0 0 0 0 127 0" result="hardAlpha"/>
<feOffset/>
<feGaussianBlur stdDeviation="0.75"/>
<feColorMatrix type="matrix" values="0 0 0 0 0.160784 0 0 0 0 0.670588 0 0 0 0 0.886275 0 0 0 0.75 0"/>
<feBlend mode="normal" in2="effect1_backgroundBlur_489_1350" result="effect2_dropShadow_489_1350"/>
<feBlend mode="normal" in="SourceGraphic" in2="effect2_dropShadow_489_1350" result="shape"/>
</filter>
<filter id="filter3_d_489_1350" x="6.79248" y="0.486328" width="8.52734" height="8.53833" filterUnits="userSpaceOnUse" color-interpolation-filters="sRGB">
<feFlood flood-opacity="0" result="BackgroundImageFix"/>
<feColorMatrix in="SourceAlpha" type="matrix" values="0 0 0 0 0 0 0 0 0 0 0 0 0 0 0 0 0 0 127 0" result="hardAlpha"/>
<feOffset/>
<feGaussianBlur stdDeviation="0.75"/>
<feColorMatrix type="matrix" values="0 0 0 0 0.160784 0 0 0 0 0.670588 0 0 0 0 0.886275 0 0 0 0.75 0"/>
<feBlend mode="normal" in2="BackgroundImageFix" result="effect1_dropShadow_489_1350"/>
<feBlend mode="normal" in="SourceGraphic" in2="effect1_dropShadow_489_1350" result="shape"/>
</filter>
<filter id="filter4_bd_489_1350" x="0.808594" y="3.44385" width="20.4978" height="22.0129" filterUnits="userSpaceOnUse" color-interpolation-filters="sRGB">
<feFlood flood-opacity="0" result="BackgroundImageFix"/>
<feGaussianBlur in="BackgroundImage" stdDeviation="2.5"/>
<feComposite in2="SourceAlpha" operator="in" result="effect1_backgroundBlur_489_1350"/>
<feColorMatrix in="SourceAlpha" type="matrix" values="0 0 0 0 0 0 0 0 0 0 0 0 0 0 0 0 0 0 127 0" result="hardAlpha"/>
<feOffset/>
<feGaussianBlur stdDeviation="0.75"/>
<feColorMatrix type="matrix" values="0 0 0 0 0.160784 0 0 0 0 0.670588 0 0 0 0 0.886275 0 0 0 0.75 0"/>
<feBlend mode="normal" in2="effect1_backgroundBlur_489_1350" result="effect2_dropShadow_489_1350"/>
<feBlend mode="normal" in="SourceGraphic" in2="effect2_dropShadow_489_1350" result="shape"/>
</filter>
<filter id="filter5_bd_489_1350" x="-2.91479" y="0.0107422" width="13.7588" height="13.7664" filterUnits="userSpaceOnUse" color-interpolation-filters="sRGB">
<feFlood flood-opacity="0" result="BackgroundImageFix"/>
<feGaussianBlur in="BackgroundImage" stdDeviation="2.5"/>
<feComposite in2="SourceAlpha" operator="in" result="effect1_backgroundBlur_489_1350"/>
<feColorMatrix in="SourceAlpha" type="matrix" values="0 0 0 0 0 0 0 0 0 0 0 0 0 0 0 0 0 0 127 0" result="hardAlpha"/>
<feOffset/>
<feGaussianBlur stdDeviation="0.75"/>
<feColorMatrix type="matrix" values="0 0 0 0 0.160784 0 0 0 0 0.670588 0 0 0 0 0.886275 0 0 0 0.75 0"/>
<feBlend mode="normal" in2="effect1_backgroundBlur_489_1350" result="effect2_dropShadow_489_1350"/>
<feBlend mode="normal" in="SourceGraphic" in2="effect2_dropShadow_489_1350" result="shape"/>
</filter>
<linearGradient id="paint0_linear_489_1350" x1="15.9816" y1="16.8067" x2="18.794" y2="10.8125" gradientUnits="userSpaceOnUse">
<stop stop-color="white"/>
<stop offset="1" stop-color="#29ABE2"/>
</linearGradient>
<linearGradient id="paint1_linear_489_1350" x1="6.76" y1="15.811" x2="2.48349" y2="10.9555" gradientUnits="userSpaceOnUse">
<stop stop-color="white"/>
<stop offset="1" stop-color="#29ABE2"/>
</linearGradient>
<linearGradient id="paint2_linear_489_1350" x1="18.0352" y1="8.77703" x2="18.0352" y2="5.01074" gradientUnits="userSpaceOnUse">
<stop stop-color="white"/>
<stop offset="1" stop-color="#29ABE2"/>
</linearGradient>
<linearGradient id="paint3_linear_489_1350" x1="8.29248" y1="4.7555" x2="13.8212" y2="4.7555" gradientUnits="userSpaceOnUse">
<stop stop-color="white"/>
<stop offset="1" stop-color="#29ABE2"/>
</linearGradient>
<linearGradient id="paint4_linear_489_1350" x1="11.0866" y1="9.98449" x2="11.5503" y2="17.8529" gradientUnits="userSpaceOnUse">
<stop stop-color="white" stop-opacity="0.98"/>
<stop offset="1" stop-color="#29ABE2"/>
</linearGradient>
<linearGradient id="paint5_linear_489_1350" x1="3.5014" y1="8.71692" x2="4.4336" y2="5.06965" gradientUnits="userSpaceOnUse">
<stop stop-color="white"/>
<stop offset="1" stop-color="#29ABE2"/>
</linearGradient>
<clipPath id="clip0_489_1350">
<rect width="22" height="22" fill="white"/>
</clipPath>
</defs>
</svg>
