<svg width="17" height="18" viewBox="0 0 17 18" fill="none" xmlns="http://www.w3.org/2000/svg">
<path d="M11.6003 0.019073C11.7685 0.0603614 11.9131 0.165605 12.0024 0.311666C12.0917 0.457727 12.1183 0.63265 12.0763 0.797978L11.7494 2.0833C11.7303 2.16686 11.6943 2.24582 11.6437 2.31553C11.5931 2.38525 11.5288 2.44431 11.4546 2.48926C11.3805 2.53421 11.2979 2.56413 11.2118 2.57727C11.1257 2.59041 11.0378 2.58649 10.9532 2.56576C10.8687 2.54503 10.7892 2.5079 10.7194 2.45654C10.6497 2.40519 10.5911 2.34065 10.5471 2.26673C10.5031 2.1928 10.4746 2.11097 10.4632 2.02606C10.4518 1.94114 10.4578 1.85485 10.4809 1.77225L10.8078 0.48693C10.8498 0.321624 10.9569 0.179479 11.1055 0.0917462C11.2541 0.00401312 11.4321 -0.0221269 11.6003 0.019073ZM15.5013 1.47277C15.5622 1.53247 15.6105 1.60339 15.6435 1.68147C15.6765 1.75954 15.6934 1.84324 15.6934 1.92778C15.6934 2.01231 15.6765 2.09601 15.6435 2.17409C15.6105 2.25217 15.5622 2.32308 15.5013 2.38278L14.1936 3.6681C14.1328 3.72786 14.0606 3.77525 13.9812 3.80759C13.9017 3.83993 13.8166 3.85657 13.7306 3.85657C13.6447 3.85657 13.5595 3.83993 13.4801 3.80759C13.4007 3.77525 13.3285 3.72786 13.2677 3.6681C13.2069 3.60835 13.1587 3.53742 13.1258 3.45935C13.0929 3.38128 13.0759 3.2976 13.0759 3.2131C13.0759 3.1286 13.0929 3.04492 13.1258 2.96685C13.1587 2.88878 13.2069 2.81785 13.2677 2.7581L14.5754 1.47277C14.6362 1.41292 14.7083 1.36544 14.7878 1.33304C14.8672 1.30064 14.9524 1.28397 15.0384 1.28397C15.1244 1.28397 15.2096 1.30064 15.289 1.33304C15.3684 1.36544 15.4406 1.41292 15.5013 1.47277ZM5.6017 15.4648C5.93002 16.0013 6.44627 16.4016 7.05358 16.5906C7.66088 16.7796 8.31748 16.7443 8.90015 16.4912C9.48282 16.2382 9.9515 15.7848 10.2182 15.2162C10.4849 14.6477 10.5314 14.003 10.3488 13.4031L5.6017 15.4648ZM4.39857 15.9879L3.09344 16.5547C2.75602 16.7017 2.38129 16.745 2.0184 16.6789C1.65551 16.6128 1.3214 16.4405 1.0599 16.1846L0.536801 15.6704C0.276224 15.4155 0.100187 15.089 0.031804 14.7339C-0.0365787 14.3788 0.00588939 14.0117 0.153632 13.6808L5.21591 2.35836C5.33599 2.09111 5.52047 1.85662 5.75341 1.67514C5.98634 1.49367 6.26074 1.37066 6.55287 1.31675C6.84501 1.26284 7.14611 1.27965 7.43016 1.36573C7.71421 1.45181 7.97266 1.60457 8.18319 1.81081L15.1561 8.64359C15.3661 8.84951 15.5219 9.10268 15.61 9.38115C15.698 9.65963 15.7156 9.955 15.6612 10.2417C15.6068 10.5283 15.4822 10.7976 15.298 11.0262C15.1138 11.2548 14.8757 11.4358 14.6042 11.5536L11.5506 12.88C11.8734 13.7943 11.8346 14.7945 11.4418 15.682C11.0491 16.5695 10.3312 17.2793 9.43061 17.6707C8.53003 18.062 7.51266 18.1062 6.58046 17.7945C5.64827 17.4827 4.86943 16.8379 4.39857 15.9879ZM16.3461 5.14108H15.0384C14.865 5.14108 14.6986 5.20879 14.576 5.32931C14.4534 5.44984 14.3845 5.6133 14.3845 5.78374C14.3845 5.95419 14.4534 6.11765 14.576 6.23817C14.6986 6.3587 14.865 6.42641 15.0384 6.42641H16.3461C16.5195 6.42641 16.6859 6.3587 16.8085 6.23817C16.9311 6.11765 17 5.95419 17 5.78374C17 5.6133 16.9311 5.44984 16.8085 5.32931C16.6859 5.20879 16.5195 5.14108 16.3461 5.14108Z" fill="#29ABE2"/>
</svg>
