<svg width="17" height="13" viewBox="0 0 17 13" fill="none" xmlns="http://www.w3.org/2000/svg">
<path d="M8.25209 3.51094C8.33473 3.50273 8.41736 3.5 8.5 3.5C10.0642 3.5 11.3333 4.65117 11.3333 6.125C11.3333 7.57422 10.0642 8.75 8.5 8.75C6.9092 8.75 5.66667 7.57422 5.66667 6.125C5.66667 6.04844 5.66962 5.97188 5.67847 5.89531C5.95295 6.01836 6.2717 6.125 6.61111 6.125C7.65295 6.125 8.5 5.34023 8.5 4.375C8.5 4.06055 8.3849 3.76523 8.25209 3.51094ZM14.1844 2.20391C15.5656 3.39062 16.4894 4.78789 16.9262 5.78867C17.0236 6.00469 17.0236 6.24531 16.9262 6.46133C16.4894 7.4375 15.5656 8.83477 14.1844 10.0461C12.7943 11.2437 10.8847 12.25 8.5 12.25C6.11528 12.25 4.20573 11.2437 2.81622 10.0461C1.43497 8.83477 0.511773 7.4375 0.0726362 6.46133C0.0246873 6.35476 0 6.24045 0 6.125C0 6.00955 0.0246873 5.89524 0.0726362 5.78867C0.511773 4.78789 1.43497 3.39062 2.81622 2.20391C4.20573 1.00734 6.11528 0 8.5 0C10.8847 0 12.7943 1.00734 14.1844 2.20391ZM8.5 2.1875C6.15365 2.1875 4.25 3.95117 4.25 6.125C4.25 8.29883 6.15365 10.0625 8.5 10.0625C10.8464 10.0625 12.75 8.29883 12.75 6.125C12.75 3.95117 10.8464 2.1875 8.5 2.1875Z" fill="#29ABE2"/>
</svg>
