<svg width="22" height="21" viewBox="0 0 22 21" fill="none" xmlns="http://www.w3.org/2000/svg">
<g clip-path="url(#clip0_489_1339)">
<g opacity="0.65" filter="url(#filter0_bd_489_1339)">
<path d="M16.1405 3.00879H2.30165C1.80629 3.00879 1.40503 3.4148 1.40503 3.91603V15.7074C2.67808 14.4286 4.39944 13.7118 6.194 13.7118H16.1405C16.6359 13.7118 17.0372 13.3058 17.0372 12.8046V3.91603C17.0372 3.4148 16.6359 3.00879 16.1405 3.00879Z" fill="url(#paint0_linear_489_1339)" fill-opacity="0.8"/>
</g>
<g opacity="0.9" filter="url(#filter1_bd_489_1339)">
<path d="M4.96669 5.96704H18.8056C19.3009 5.96704 19.7022 6.37305 19.7022 6.87428V18.667C18.4291 17.3882 16.7078 16.6714 14.9132 16.6714H4.96669C4.47133 16.6714 4.07007 16.2654 4.07007 15.7641V6.87428C4.07007 6.37305 4.47133 5.96704 4.96669 5.96704Z" fill="url(#paint1_linear_489_1339)" fill-opacity="0.7"/>
</g>
</g>
<defs>
<filter id="filter0_bd_489_1339" x="-3.59497" y="-1.99121" width="25.6321" height="22.6987" filterUnits="userSpaceOnUse" color-interpolation-filters="sRGB">
<feFlood flood-opacity="0" result="BackgroundImageFix"/>
<feGaussianBlur in="BackgroundImage" stdDeviation="2.5"/>
<feComposite in2="SourceAlpha" operator="in" result="effect1_backgroundBlur_489_1339"/>
<feColorMatrix in="SourceAlpha" type="matrix" values="0 0 0 0 0 0 0 0 0 0 0 0 0 0 0 0 0 0 127 0" result="hardAlpha"/>
<feOffset/>
<feGaussianBlur stdDeviation="0.75"/>
<feColorMatrix type="matrix" values="0 0 0 0 0.160784 0 0 0 0 0.670588 0 0 0 0 0.886275 0 0 0 0.75 0"/>
<feBlend mode="normal" in2="effect1_backgroundBlur_489_1339" result="effect2_dropShadow_489_1339"/>
<feBlend mode="normal" in="SourceGraphic" in2="effect2_dropShadow_489_1339" result="shape"/>
</filter>
<filter id="filter1_bd_489_1339" x="0.0700684" y="1.96704" width="23.6321" height="20.7" filterUnits="userSpaceOnUse" color-interpolation-filters="sRGB">
<feFlood flood-opacity="0" result="BackgroundImageFix"/>
<feGaussianBlur in="BackgroundImage" stdDeviation="2"/>
<feComposite in2="SourceAlpha" operator="in" result="effect1_backgroundBlur_489_1339"/>
<feColorMatrix in="SourceAlpha" type="matrix" values="0 0 0 0 0 0 0 0 0 0 0 0 0 0 0 0 0 0 127 0" result="hardAlpha"/>
<feOffset/>
<feGaussianBlur stdDeviation="0.75"/>
<feColorMatrix type="matrix" values="0 0 0 0 0.160784 0 0 0 0 0.670588 0 0 0 0 0.886275 0 0 0 0.75 0"/>
<feBlend mode="normal" in2="effect1_backgroundBlur_489_1339" result="effect2_dropShadow_489_1339"/>
<feBlend mode="normal" in="SourceGraphic" in2="effect2_dropShadow_489_1339" result="shape"/>
</filter>
<linearGradient id="paint0_linear_489_1339" x1="1.40503" y1="9.35812" x2="17.0372" y2="9.35812" gradientUnits="userSpaceOnUse">
<stop stop-color="#D8F0FA"/>
<stop offset="1" stop-color="#29ABE2"/>
</linearGradient>
<linearGradient id="paint1_linear_489_1339" x1="19.7009" y1="12.3164" x2="-2.15666" y2="12.2996" gradientUnits="userSpaceOnUse">
<stop stop-color="white"/>
<stop offset="1" stop-color="#29ABE2"/>
</linearGradient>
<clipPath id="clip0_489_1339">
<rect width="22" height="21" fill="white"/>
</clipPath>
</defs>
</svg>
