<svg width="117" height="181" viewBox="0 0 117 181" fill="none" xmlns="http://www.w3.org/2000/svg">
<g opacity="0.68" filter="url(#filter0_bd_489_1240)">
<path d="M10.9599 158.86C10.9599 165.54 16.37 170.95 23.05 170.95H94.14C100.82 170.95 106.23 165.54 106.23 158.86V10.5999L88.86 10.6498C45.84 10.6198 10.95 45.4899 10.95 88.5099V158.85L10.9599 158.86Z" fill="url(#paint0_linear_489_1240)" fill-opacity="0.4"/>
</g>
<g opacity="0.89">
<path opacity="0.5" d="M42.1001 116.8V122.7C42.1001 123.362 42.6374 123.9 43.3001 123.9H47.1601C47.8229 123.9 48.3601 123.362 48.3601 122.7V116.8C48.3601 116.137 47.8229 115.6 47.1601 115.6H43.3001C42.6374 115.6 42.1001 116.137 42.1001 116.8Z" fill="white"/>
<path opacity="0.5" d="M42.1101 105.2V111.1C42.1101 111.763 42.6474 112.3 43.3101 112.3H47.1701C47.8328 112.3 48.3701 111.763 48.3701 111.1V105.2C48.3701 104.537 47.8328 104 47.1701 104H43.3101C42.6474 104 42.1101 104.537 42.1101 105.2Z" fill="white"/>
<path opacity="0.5" d="M55.1801 116.81V122.71C55.1801 123.372 55.7173 123.91 56.3801 123.91H60.2401C60.9028 123.91 61.4401 123.372 61.4401 122.71V116.81C61.4401 116.147 60.9028 115.61 60.2401 115.61H56.3801C55.7173 115.61 55.1801 116.147 55.1801 116.81Z" fill="white"/>
<path opacity="0.5" d="M55.1901 105.21V111.11C55.1901 111.773 55.7273 112.31 56.3901 112.31H60.2501C60.9128 112.31 61.4501 111.773 61.4501 111.11V105.21C61.4501 104.547 60.9128 104.01 60.2501 104.01H56.3901C55.7273 104.01 55.1901 104.547 55.1901 105.21Z" fill="white"/>
<path opacity="0.5" d="M68.2601 116.8V122.7C68.2601 123.362 68.7974 123.9 69.4601 123.9H73.3201C73.9829 123.9 74.5201 123.362 74.5201 122.7V116.8C74.5201 116.137 73.9829 115.6 73.3201 115.6H69.4601C68.7974 115.6 68.2601 116.137 68.2601 116.8Z" fill="white"/>
<path opacity="0.5" d="M68.2601 105.21V111.11C68.2601 111.773 68.7974 112.31 69.4601 112.31H73.3201C73.9829 112.31 74.5201 111.773 74.5201 111.11V105.21C74.5201 104.547 73.9829 104.01 73.3201 104.01H69.4601C68.7974 104.01 68.2601 104.547 68.2601 105.21Z" fill="white"/>
<path opacity="0.5" d="M44.7401 137.37H57.1601V168.01H42.1101V140C42.1101 138.55 43.2901 137.37 44.7401 137.37Z" fill="white"/>
<path opacity="0.5" d="M59.6201 137.37H71.8901C73.3401 137.37 74.5201 138.55 74.5201 140V168.01H59.6201V137.37Z" fill="white"/>
</g>
<g opacity="0.3" filter="url(#filter1_b_489_1240)">
<path d="M10.9599 158.86C10.9599 165.54 16.37 170.95 23.05 170.95H94.14C100.82 170.95 106.23 165.54 106.23 158.86V10.5999L88.86 10.6498C45.84 10.6198 10.95 45.4899 10.95 88.5099V158.85L10.9599 158.86Z" fill="url(#paint1_linear_489_1240)" fill-opacity="0.9"/>
</g>
<defs>
<filter id="filter0_bd_489_1240" x="0.949951" y="0.599854" width="115.28" height="180.35" filterUnits="userSpaceOnUse" color-interpolation-filters="sRGB">
<feFlood flood-opacity="0" result="BackgroundImageFix"/>
<feGaussianBlur in="BackgroundImage" stdDeviation="5"/>
<feComposite in2="SourceAlpha" operator="in" result="effect1_backgroundBlur_489_1240"/>
<feColorMatrix in="SourceAlpha" type="matrix" values="0 0 0 0 0 0 0 0 0 0 0 0 0 0 0 0 0 0 127 0" result="hardAlpha"/>
<feOffset/>
<feGaussianBlur stdDeviation="5"/>
<feColorMatrix type="matrix" values="0 0 0 0 0.160784 0 0 0 0 0.670588 0 0 0 0 0.886275 0 0 0 0.75 0"/>
<feBlend mode="normal" in2="effect1_backgroundBlur_489_1240" result="effect2_dropShadow_489_1240"/>
<feBlend mode="normal" in="SourceGraphic" in2="effect2_dropShadow_489_1240" result="shape"/>
</filter>
<filter id="filter1_b_489_1240" x="0.949951" y="0.599854" width="115.28" height="180.35" filterUnits="userSpaceOnUse" color-interpolation-filters="sRGB">
<feFlood flood-opacity="0" result="BackgroundImageFix"/>
<feGaussianBlur in="BackgroundImage" stdDeviation="5"/>
<feComposite in2="SourceAlpha" operator="in" result="effect1_backgroundBlur_489_1240"/>
<feBlend mode="normal" in="SourceGraphic" in2="effect1_backgroundBlur_489_1240" result="shape"/>
</filter>
<linearGradient id="paint0_linear_489_1240" x1="91.2297" y1="111.44" x2="20.2297" y2="52.9398" gradientUnits="userSpaceOnUse">
<stop stop-color="#29ABE2"/>
<stop offset="0.74" stop-color="#F8FCFF" stop-opacity="0.98"/>
<stop offset="0.81" stop-color="white"/>
</linearGradient>
<linearGradient id="paint1_linear_489_1240" x1="96.95" y1="90.4398" x2="20.2297" y2="52.9398" gradientUnits="userSpaceOnUse">
<stop stop-color="#14A7E6"/>
<stop offset="0.74" stop-color="#F8FCFF" stop-opacity="0.98"/>
<stop offset="0.81" stop-color="white"/>
</linearGradient>
</defs>
</svg>
