<svg width="18" height="31" viewBox="0 0 18 31" fill="none" xmlns="http://www.w3.org/2000/svg">
<path d="M13.9987 0C14.0773 0 14.1413 0.0639486 14.1413 0.142514V3.1079H13.8542V0.142514C13.8561 0.0639486 13.9201 0 13.9987 0Z" fill="#3266EB"/>
<path d="M14.3186 0.32892V1.71752L16.0849 0.85878L14.6166 0.144383C14.4795 0.0767804 14.3204 0.177271 14.3204 0.32892H14.3186Z" fill="#3266EB"/>
<path d="M17.5456 2.19067V30.9492H2.92548C1.31098 30.9492 0 29.6392 0 28.0259V19.7217C0 10.0454 7.86224 2.18884 17.5456 2.18884V2.19067Z" fill="#3266EB"/>
<path d="M5.79785 22.901L17.5455 30.9494V21.7554L12.9982 18.2108H5.79785V22.901Z" fill="#215AD8"/>
<path d="M5.5 18.2089V19.4093C5.5 19.5738 5.63344 19.7072 5.79803 19.7072H6.65008C6.81468 19.7072 6.94812 19.5738 6.94812 19.4093V18.2089C6.94812 18.0445 6.81468 17.9111 6.65008 17.9111H5.79803C5.63344 17.9111 5.5 18.0445 5.5 18.2089Z" fill="#E1FBFF"/>
<path d="M8.52417 18.2108V19.4112C8.52417 19.5756 8.65761 19.709 8.8222 19.709H9.67425C9.83885 19.709 9.97229 19.5756 9.97229 19.4112V18.2108C9.97229 18.0463 9.83885 17.9129 9.67425 17.9129H8.8222C8.65761 17.9129 8.52417 18.0463 8.52417 18.2108Z" fill="#E1FBFF"/>
<path d="M11.55 18.2108V19.4112C11.55 19.5756 11.6835 19.709 11.8481 19.709H12.7001C12.8647 19.709 12.9982 19.5756 12.9982 19.4112V18.2108C12.9982 18.0463 12.8647 17.9129 12.7001 17.9129H11.8481C11.6835 17.9129 11.55 18.0463 11.55 18.2108Z" fill="#E1FBFF"/>
<path d="M5.5 21.4027V22.6031C5.5 22.7675 5.63343 22.9009 5.79803 22.9009H6.65008C6.81468 22.9009 6.94811 22.7675 6.94811 22.6031V21.4027C6.94811 21.2382 6.81468 21.1048 6.65008 21.1048H5.79803C5.63343 21.1048 5.5 21.2382 5.5 21.4027Z" fill="#E1FBFF"/>
<path d="M8.52417 21.4027V22.6031C8.52417 22.7675 8.6576 22.9009 8.8222 22.9009H9.67425C9.83885 22.9009 9.97228 22.7675 9.97228 22.6031V21.4027C9.97228 21.2382 9.83885 21.1048 9.67425 21.1048H8.8222C8.6576 21.1048 8.52417 21.2382 8.52417 21.4027Z" fill="#E1FBFF"/>
<path d="M11.55 21.4027V22.6031C11.55 22.7675 11.6835 22.9009 11.8481 22.9009H12.7001C12.8647 22.9009 12.9982 22.7675 12.9982 22.6031V21.4027C12.9982 21.2382 12.8647 21.1048 12.7001 21.1048H11.8481C11.6835 21.1048 11.55 21.2382 11.55 21.4027Z" fill="#E1FBFF"/>
</svg>
