<svg width="107" height="128" viewBox="0 0 107 128" fill="none" xmlns="http://www.w3.org/2000/svg">
<path d="M91.0225 37.7115C95.3846 33.1081 87.5549 29.0123 86.7709 34.3042C86.0321 39.2995 83.9365 41.0786 76.2977 42.551C74.6393 42.8727 73.2221 41.3801 73.5739 39.7267C76.0665 28.0575 72.1919 15.2926 61.8946 7.00556C56.0801 2.32681 49.1348 0.0703572 42.1443 0C39.4205 0.125638 36.7017 0.427169 34.008 0.899565C27.4046 2.44742 21.1579 5.93512 16.2278 11.1767C10.4435 17.328 6.26727 25.3336 5.49836 35.0379C4.36762 49.3204 0.16126 83.8761 0.000443759 102.913C-0.0347349 107.24 2.02573 110.541 4.72946 112.768C29.5505 133.171 66.2768 131.965 89.7008 108.933C97.43 101.335 102.802 92.2436 105.823 82.5745C106.818 79.3833 108.401 73.2722 104.511 67.116C100.114 60.1506 93.7262 59.3918 89.942 57.5675C86.6503 55.9845 85.6753 51.4615 88.3791 52.5671C93.4347 54.6376 104.39 53.2757 103.224 42.6767C102.827 39.0533 100.214 36.445 98.601 35.7616C94.5102 34.0278 91.0175 37.7115 91.0175 37.7115H91.0225Z" fill="#4FC9F3"/>
<path d="M61.7636 29.2929C62.5602 29.2929 63.2059 28.6471 63.2059 27.8505C63.2059 27.0539 62.5602 26.4082 61.7636 26.4082C60.9671 26.4082 60.3213 27.0539 60.3213 27.8505C60.3213 28.6471 60.9671 29.2929 61.7636 29.2929Z" fill="white"/>
<path d="M66.0361 29.2929C66.8326 29.2929 67.4784 28.6471 67.4784 27.8505C67.4784 27.0539 66.8326 26.4082 66.0361 26.4082C65.2395 26.4082 64.5938 27.0539 64.5938 27.8505C64.5938 28.6471 65.2395 29.2929 66.0361 29.2929Z" fill="white"/>
<path d="M62.2768 33.6961C62.2517 33.0427 62.704 32.4548 63.3523 32.3794C63.8397 32.3241 64.277 32.5502 64.5182 32.9221C64.5534 32.9774 64.6287 32.9774 64.6639 32.9221C64.9051 32.5553 65.3474 32.3241 65.8298 32.3794C66.4781 32.4548 66.9304 33.0427 66.9053 33.6961C66.8952 34.0076 66.7897 34.3293 66.5535 34.6006C66.2068 35.0027 65.3625 35.9776 64.9001 36.5103C64.7343 36.7013 64.4378 36.7013 64.2669 36.5103C63.8046 35.9776 62.9653 35.0027 62.6135 34.6006C62.3773 34.3293 62.2718 34.0076 62.2617 33.6961H62.2768Z" fill="white"/>
</svg>
