<svg width="17" height="19" viewBox="0 0 17 19" fill="none" xmlns="http://www.w3.org/2000/svg">
<path d="M13.8571 13.4667V6.66667C13.8571 5.16377 13.2927 3.72243 12.2881 2.65973C11.2834 1.59702 9.9208 1 8.5 1C7.0792 1 5.71659 1.59702 4.71193 2.65973C3.70727 3.72243 3.14286 5.16377 3.14286 6.66667V13.4667M13.8571 13.4667H3.14286M13.8571 13.4667C14.4255 13.4667 14.9705 13.7055 15.3724 14.1306C15.7742 14.5556 16 15.1322 16 15.7333V18H1V15.7333C1 15.1322 1.22576 14.5556 1.62763 14.1306C2.02949 13.7055 2.57454 13.4667 3.14286 13.4667M8.5 6.66667V13.4667" stroke="#2F2F2F" stroke-width="1.3" stroke-linecap="round" stroke-linejoin="round"/>
</svg>
