<?xml version="1.0" encoding="UTF-8"?><svg id="Layer_1" xmlns="http://www.w3.org/2000/svg" viewBox="0 0 254.5 254.5"><defs><style>.cls-1{fill:#033791;}.cls-2{fill:#3266eb;}.cls-3{fill:#20a9e5;}</style></defs><path class="cls-1" d="M116.98,145.95c-.45,13.92-11.92,31.12-18.77,11.29-6.85-19.83-16.34-30.05,2.48-32.15,18.82-2.1,16.64,9.67,16.28,20.87Z"/><circle class="cls-1" cx="89.12" cy="103.06" r="6.63"/><circle class="cls-1" cx="109.58" cy="103.06" r="6.63"/><path class="cls-2" d="M98.68,20.21c-15.91-9.48-49.89,2.83-53.27,31.7-.78,6.64,.72,17.75,7.24,25.45,5.78,6.82,13.39,10.58,16.75,7.16,0,0-3.3,2.89-5.78-.61-1.79-2.53-1.37-8.07,1.1-11.42,8.06-10.91,19.4-2.05,36.5-20.97,5.2-5.76,11.52-22.93-2.54-31.31Z"/><path class="cls-3" d="M127.25,.63c-.78,0-1.57,.02-2.35,.03-37.04,15.77-37.87,55.57-27.66,47.01,21.98-18.41,23.88,53.59,62.79,69.22s58.98-7.91,58.98,25.6-50,81.48-114.24,49.54c-36.37-18.08-66.71-18.49-91.55-9.69,20.49,42.33,63.85,71.52,114.03,71.52,69.93,0,126.62-56.69,126.62-126.62S197.18,.63,127.25,.63Z"/></svg>