<svg width="22" height="29" viewBox="0 0 22 29" fill="none" xmlns="http://www.w3.org/2000/svg">
<path d="M20.263 10.5404C20.263 5.34177 15.9687 1.15 10.7109 1.15C5.45302 1.15 1.15879 5.34177 1.15879 10.5404V18.0275C1.15879 19.0954 2.03848 19.9361 3.08734 19.9361H18.3344C19.3833 19.9361 20.263 19.0954 20.263 18.0275V10.5404Z" stroke="#2F2F2F" stroke-width="1.7" stroke-miterlimit="10"/>
<path d="M18.3344 23.15H3.08734C2.03733 23.15 1.15879 23.9895 1.15879 25.0585V25.704C1.15879 26.773 2.03733 27.6125 3.08734 27.6125H18.3344C19.3844 27.6125 20.263 26.773 20.263 25.704V25.0585C20.263 23.9895 19.3844 23.15 18.3344 23.15Z" stroke="#2F2F2F" stroke-width="1.7" stroke-miterlimit="10"/>
<path d="M10.7109 7.17929V11.3308" stroke="#2F2F2F" stroke-width="2" stroke-miterlimit="10" stroke-linecap="round"/>
<path d="M10.7109 15.3564V15.9863" stroke="#2F2F2F" stroke-width="2" stroke-miterlimit="10" stroke-linecap="round"/>
</svg>
