<svg width="26" height="26" viewBox="0 0 26 26" fill="none" xmlns="http://www.w3.org/2000/svg">
<path d="M13 16.25C14.7949 16.25 16.25 14.7949 16.25 13C16.25 11.2051 14.7949 9.75 13 9.75C11.2051 9.75 9.75 11.2051 9.75 13C9.75 14.7949 11.2051 16.25 13 16.25Z" stroke="#2F2F2F" stroke-width="1.5" stroke-linecap="round" stroke-linejoin="round"/>
<path d="M21.0166 16.2507C20.8724 16.5774 20.8294 16.9399 20.8931 17.2913C20.9568 17.6427 21.1243 17.967 21.3741 18.2223L21.4391 18.2873C21.6405 18.4885 21.8003 18.7275 21.9094 18.9905C22.0184 19.2536 22.0745 19.5355 22.0745 19.8202C22.0745 20.105 22.0184 20.3869 21.9094 20.6499C21.8003 20.913 21.6405 21.1519 21.4391 21.3532C21.2379 21.5546 20.9989 21.7144 20.7359 21.8234C20.4728 21.9325 20.1909 21.9886 19.9062 21.9886C19.6214 21.9886 19.3395 21.9325 19.0765 21.8234C18.8134 21.7144 18.5745 21.5546 18.3733 21.3532L18.3083 21.2882C18.0529 21.0384 17.7287 20.8709 17.3772 20.8071C17.0258 20.7434 16.6633 20.7864 16.3366 20.9307C16.0162 21.068 15.7429 21.296 15.5504 21.5866C15.3579 21.8773 15.2546 22.2179 15.2533 22.5665V22.7507C15.2533 23.3253 15.025 23.8764 14.6186 24.2827C14.2123 24.689 13.6612 24.9173 13.0866 24.9173C12.5119 24.9173 11.9609 24.689 11.5545 24.2827C11.1482 23.8764 10.9199 23.3253 10.9199 22.7507V22.6532C10.9115 22.2946 10.7955 21.9468 10.5868 21.6551C10.3781 21.3633 10.0865 21.1411 9.74992 21.0173C9.42317 20.8731 9.06071 20.8301 8.70928 20.8938C8.35785 20.9575 8.03357 21.1251 7.77825 21.3748L7.71325 21.4398C7.51203 21.6413 7.27307 21.8011 7.01004 21.9101C6.74701 22.0192 6.46507 22.0753 6.18034 22.0753C5.8956 22.0753 5.61366 22.0192 5.35063 21.9101C5.0876 21.8011 4.84864 21.6413 4.64742 21.4398C4.44597 21.2386 4.28616 20.9996 4.17712 20.7366C4.06809 20.4736 4.01196 20.1916 4.01196 19.9069C4.01196 19.6222 4.06809 19.3402 4.17712 19.0772C4.28616 18.8142 4.44597 18.5752 4.64742 18.374L4.71242 18.309C4.96217 18.0537 5.1297 17.7294 5.19342 17.378C5.25714 17.0265 5.21413 16.6641 5.06992 16.3373C4.93259 16.0169 4.70457 15.7436 4.41392 15.5512C4.12328 15.3587 3.78269 15.2554 3.43409 15.254H3.24992C2.67528 15.254 2.12418 15.0257 1.71785 14.6194C1.31153 14.2131 1.08325 13.662 1.08325 13.0873C1.08325 12.5127 1.31153 11.9616 1.71785 11.5553C2.12418 11.1489 2.67528 10.9207 3.24992 10.9207H3.34742C3.706 10.9123 4.05376 10.7962 4.34549 10.5875C4.63723 10.3789 4.85944 10.0873 4.98325 9.75065C5.12746 9.4239 5.17048 9.06144 5.10676 8.71001C5.04304 8.35859 4.8755 8.0343 4.62575 7.77898L4.56075 7.71398C4.3593 7.51276 4.19949 7.2738 4.09046 7.01077C3.98142 6.74774 3.9253 6.4658 3.9253 6.18107C3.9253 5.89633 3.98142 5.61439 4.09046 5.35136C4.19949 5.08833 4.3593 4.84938 4.56075 4.64815C4.76198 4.4467 5.00094 4.28689 5.26396 4.17786C5.52699 4.06882 5.80894 4.0127 6.09367 4.0127C6.3784 4.0127 6.66034 4.06882 6.92337 4.17786C7.1864 4.28689 7.42536 4.4467 7.62659 4.64815L7.69159 4.71315C7.9469 4.9629 8.27119 5.13044 8.62261 5.19416C8.97404 5.25788 9.3365 5.21486 9.66325 5.07065H9.74992C10.0703 4.93332 10.3436 4.7053 10.5361 4.41466C10.7286 4.12401 10.8319 3.78342 10.8333 3.43482V3.25065C10.8333 2.67602 11.0615 2.12492 11.4679 1.71859C11.8742 1.31226 12.4253 1.08398 12.9999 1.08398C13.5746 1.08398 14.1257 1.31226 14.532 1.71859C14.9383 2.12492 15.1666 2.67602 15.1666 3.25065V3.34815C15.168 3.69675 15.2713 4.03734 15.4638 4.32799C15.6562 4.61864 15.9295 4.84666 16.2499 4.98398C16.5767 5.12819 16.9391 5.17121 17.2906 5.10749C17.642 5.04377 17.9663 4.87623 18.2216 4.62648L18.2866 4.56148C18.4878 4.36004 18.7268 4.20022 18.9898 4.09119C19.2528 3.98215 19.5348 3.92603 19.8195 3.92603C20.1042 3.92603 20.3862 3.98215 20.6492 4.09119C20.9122 4.20022 21.1512 4.36004 21.3524 4.56148C21.5539 4.76271 21.7137 5.00167 21.8227 5.2647C21.9318 5.52773 21.9879 5.80967 21.9879 6.0944C21.9879 6.37913 21.9318 6.66108 21.8227 6.92411C21.7137 7.18713 21.5539 7.42609 21.3524 7.62732L21.2874 7.69232C21.0377 7.94764 20.8701 8.27192 20.8064 8.62335C20.7427 8.97477 20.7857 9.33723 20.9299 9.66398V9.75065C21.0672 10.0711 21.2953 10.3443 21.5859 10.5368C21.8766 10.7293 22.2172 10.8326 22.5658 10.834H22.7499C23.3246 10.834 23.8757 11.0623 24.282 11.4686C24.6883 11.8749 24.9166 12.426 24.9166 13.0007C24.9166 13.5753 24.6883 14.1264 24.282 14.5327C23.8757 14.939 23.3246 15.1673 22.7499 15.1673H22.6524C22.3038 15.1687 21.9632 15.272 21.6726 15.4645C21.3819 15.657 21.1539 15.9302 21.0166 16.2507V16.2507Z" stroke="#2F2F2F" stroke-width="1.5" stroke-linecap="round" stroke-linejoin="round"/>
</svg>
