<svg width="26" height="26" viewBox="0 0 26 26" fill="none" xmlns="http://www.w3.org/2000/svg">
<path d="M21.0163 16.2497C20.8721 16.5764 20.8291 16.9389 20.8928 17.2903C20.9566 17.6417 21.1241 17.966 21.3738 18.2213L21.4388 18.2863C21.6403 18.4876 21.8001 18.7265 21.9091 18.9896C22.0182 19.2526 22.0743 19.5345 22.0743 19.8193C22.0743 20.104 22.0182 20.3859 21.9091 20.649C21.8001 20.912 21.6403 21.1509 21.4388 21.3522C21.2376 21.5536 20.9987 21.7134 20.7356 21.8225C20.4726 21.9315 20.1907 21.9876 19.9059 21.9876C19.6212 21.9876 19.3393 21.9315 19.0762 21.8225C18.8132 21.7134 18.5742 21.5536 18.373 21.3522L18.308 21.2872C18.0527 21.0374 17.7284 20.8699 17.377 20.8062C17.0256 20.7424 16.6631 20.7855 16.3363 20.9297C16.0159 21.067 15.7427 21.295 15.5502 21.5857C15.3577 21.8763 15.2544 22.2169 15.253 22.5655V22.7497C15.253 23.3243 15.0247 23.8754 14.6184 24.2817C14.2121 24.6881 13.661 24.9163 13.0863 24.9163C12.5117 24.9163 11.9606 24.6881 11.5543 24.2817C11.1479 23.8754 10.9197 23.3243 10.9197 22.7497V22.6522C10.9113 22.2936 10.7952 21.9458 10.5866 21.6541C10.3779 21.3624 10.0863 21.1401 9.74967 21.0163C9.42292 20.8721 9.06047 20.8291 8.70904 20.8928C8.35761 20.9566 8.03333 21.1241 7.77801 21.3738L7.71301 21.4388C7.51178 21.6403 7.27282 21.8001 7.0098 21.9091C6.74677 22.0182 6.46482 22.0743 6.18009 22.0743C5.89536 22.0743 5.61342 22.0182 5.35039 21.9091C5.08736 21.8001 4.8484 21.6403 4.64717 21.4388C4.44573 21.2376 4.28591 20.9987 4.17688 20.7356C4.06784 20.4726 4.01172 20.1907 4.01172 19.9059C4.01172 19.6212 4.06784 19.3393 4.17688 19.0762C4.28591 18.8132 4.44573 18.5742 4.64717 18.373L4.71217 18.308C4.96192 18.0527 5.12946 17.7284 5.19318 17.377C5.2569 17.0256 5.21388 16.6631 5.06967 16.3363C4.93235 16.0159 4.70433 15.7427 4.41368 15.5502C4.12303 15.3577 3.78244 15.2544 3.43384 15.253H3.24967C2.67504 15.253 2.12394 15.0247 1.71761 14.6184C1.31128 14.2121 1.08301 13.661 1.08301 13.0863C1.08301 12.5117 1.31128 11.9606 1.71761 11.5543C2.12394 11.1479 2.67504 10.9197 3.24967 10.9197H3.34717C3.70575 10.9113 4.05351 10.7952 4.34525 10.5866C4.63698 10.3779 4.8592 10.0863 4.98301 9.74967C5.12722 9.42292 5.17023 9.06047 5.10651 8.70904C5.04279 8.35761 4.87526 8.03333 4.62551 7.77801L4.56051 7.71301C4.35906 7.51178 4.19925 7.27282 4.09021 7.0098C3.98118 6.74677 3.92505 6.46482 3.92505 6.18009C3.92505 5.89536 3.98118 5.61342 4.09021 5.35039C4.19925 5.08736 4.35906 4.8484 4.56051 4.64717C4.76173 4.44573 5.00069 4.28591 5.26372 4.17688C5.52675 4.06784 5.80869 4.01172 6.09342 4.01172C6.37816 4.01172 6.6601 4.06784 6.92313 4.17688C7.18616 4.28591 7.42512 4.44573 7.62634 4.64717L7.69134 4.71217C7.94666 4.96192 8.27094 5.12946 8.62237 5.19318C8.9738 5.2569 9.33626 5.21388 9.66301 5.06967H9.74967C10.0701 4.93235 10.3434 4.70433 10.5358 4.41368C10.7283 4.12303 10.8316 3.78244 10.833 3.43384V3.24967C10.833 2.67504 11.0613 2.12394 11.4676 1.71761C11.8739 1.31128 12.425 1.08301 12.9997 1.08301C13.5743 1.08301 14.1254 1.31128 14.5317 1.71761C14.9381 2.12394 15.1663 2.67504 15.1663 3.24967V3.34717C15.1677 3.69578 15.271 4.03636 15.4635 4.32701C15.656 4.61766 15.9293 4.84568 16.2497 4.98301C16.5764 5.12722 16.9389 5.17023 17.2903 5.10651C17.6417 5.04279 17.966 4.87526 18.2213 4.62551L18.2863 4.56051C18.4876 4.35906 18.7265 4.19925 18.9896 4.09021C19.2526 3.98118 19.5345 3.92505 19.8193 3.92505C20.104 3.92505 20.3859 3.98118 20.649 4.09021C20.912 4.19925 21.1509 4.35906 21.3522 4.56051C21.5536 4.76173 21.7134 5.00069 21.8225 5.26372C21.9315 5.52675 21.9876 5.80869 21.9876 6.09342C21.9876 6.37816 21.9315 6.6601 21.8225 6.92313C21.7134 7.18616 21.5536 7.42512 21.3522 7.62634L21.2872 7.69134C21.0374 7.94666 20.8699 8.27094 20.8062 8.62237C20.7424 8.9738 20.7855 9.33626 20.9297 9.66301V9.74967C21.067 10.0701 21.295 10.3434 21.5857 10.5358C21.8763 10.7283 22.2169 10.8316 22.5655 10.833H22.7497C23.3243 10.833 23.8754 11.0613 24.2817 11.4676C24.6881 11.8739 24.9163 12.425 24.9163 12.9997C24.9163 13.5743 24.6881 14.1254 24.2817 14.5317C23.8754 14.9381 23.3243 15.1663 22.7497 15.1663H22.6522C22.3036 15.1677 21.963 15.271 21.6723 15.4635C21.3817 15.656 21.1537 15.9293 21.0163 16.2497V16.2497Z" stroke="#2F2F2F" stroke-width="1.5" stroke-linecap="round" stroke-linejoin="round"/>
</svg>
