<svg width="26" height="26" viewBox="0 0 26 26" fill="none" xmlns="http://www.w3.org/2000/svg">
<path d="M23.6047 1.60332L24.2439 2.24249C25.1247 3.12432 24.9914 4.68757 23.9438 5.73407L10.7629 18.915L6.49241 20.4772C5.95616 20.6743 5.434 20.4187 5.32783 19.9084C5.29195 19.7233 5.30884 19.5319 5.37658 19.3559L6.96908 15.0486L20.1132 1.9034C21.1607 0.856903 22.724 0.72257 23.6047 1.6044V1.60332ZM10.1877 2.91415C10.3299 2.91415 10.4708 2.94217 10.6022 2.99662C10.7337 3.05106 10.8531 3.13086 10.9537 3.23145C11.0543 3.33205 11.1341 3.45148 11.1885 3.58291C11.243 3.71435 11.271 3.85522 11.271 3.99749C11.271 4.13975 11.243 4.28062 11.1885 4.41206C11.1341 4.5435 11.0543 4.66292 10.9537 4.76352C10.8531 4.86412 10.7337 4.94391 10.6022 4.99836C10.4708 5.0528 10.3299 5.08082 10.1877 5.08082H5.85433C5.27969 5.08082 4.72859 5.30909 4.32226 5.71542C3.91594 6.12175 3.68766 6.67285 3.68766 7.24749V20.2475C3.68766 20.8221 3.91594 21.3732 4.32226 21.7796C4.72859 22.1859 5.27969 22.4142 5.85433 22.4142H18.8543C19.429 22.4142 19.9801 22.1859 20.3864 21.7796C20.7927 21.3732 21.021 20.8221 21.021 20.2475V15.9142C21.021 15.6268 21.1351 15.3513 21.3383 15.1481C21.5415 14.945 21.817 14.8308 22.1043 14.8308C22.3916 14.8308 22.6672 14.945 22.8704 15.1481C23.0735 15.3513 23.1877 15.6268 23.1877 15.9142V20.2475C23.1877 21.3968 22.7311 22.499 21.9185 23.3116C21.1058 24.1243 20.0036 24.5808 18.8543 24.5808H5.85433C4.70506 24.5808 3.60286 24.1243 2.7902 23.3116C1.97754 22.499 1.521 21.3968 1.521 20.2475V7.24749C1.521 6.09822 1.97754 4.99602 2.7902 4.18336C3.60286 3.3707 4.70506 2.91415 5.85433 2.91415H10.1877V2.91415Z" fill="white"/>
</svg>
