<svg width="24" height="24" viewBox="0 0 24 24" fill="none" xmlns="http://www.w3.org/2000/svg">
<path d="M22.6047 0.60332L23.2439 1.24249C24.1247 2.12432 23.9914 3.68757 22.9438 4.73407L9.76291 17.915L5.49241 19.4772C4.95616 19.6743 4.434 19.4187 4.32783 18.9084C4.29195 18.7233 4.30884 18.5319 4.37658 18.3559L5.96908 14.0486L19.1132 0.903403C20.1607 -0.143097 21.724 -0.27743 22.6047 0.604403V0.60332ZM9.18766 1.91415C9.32993 1.91415 9.4708 1.94217 9.60224 1.99662C9.73367 2.05106 9.8531 2.13086 9.9537 2.23145C10.0543 2.33205 10.1341 2.45148 10.1885 2.58291C10.243 2.71435 10.271 2.85522 10.271 2.99749C10.271 3.13975 10.243 3.28062 10.1885 3.41206C10.1341 3.5435 10.0543 3.66292 9.9537 3.76352C9.8531 3.86412 9.73367 3.94391 9.60224 3.99836C9.4708 4.0528 9.32993 4.08082 9.18766 4.08082H4.85433C4.27969 4.08082 3.72859 4.30909 3.32226 4.71542C2.91594 5.12175 2.68766 5.67285 2.68766 6.24749V19.2475C2.68766 19.8221 2.91594 20.3732 3.32226 20.7796C3.72859 21.1859 4.27969 21.4142 4.85433 21.4142H17.8543C18.429 21.4142 18.9801 21.1859 19.3864 20.7796C19.7927 20.3732 20.021 19.8221 20.021 19.2475V14.9142C20.021 14.6268 20.1351 14.3513 20.3383 14.1481C20.5415 13.945 20.817 13.8308 21.1043 13.8308C21.3916 13.8308 21.6672 13.945 21.8704 14.1481C22.0735 14.3513 22.1877 14.6268 22.1877 14.9142V19.2475C22.1877 20.3968 21.7311 21.499 20.9185 22.3116C20.1058 23.1243 19.0036 23.5808 17.8543 23.5808H4.85433C3.70506 23.5808 2.60286 23.1243 1.7902 22.3116C0.977542 21.499 0.520996 20.3968 0.520996 19.2475V6.24749C0.520996 5.09822 0.977542 3.99602 1.7902 3.18336C2.60286 2.3707 3.70506 1.91415 4.85433 1.91415H9.18766Z" fill="#A8A8A8"/>
</svg>
