<svg width="145" height="145" viewBox="0 0 145 145" fill="none" xmlns="http://www.w3.org/2000/svg">
<path d="M84.75 55V60.25V55ZM84.75 65.5V60.25V65.5ZM84.75 60.25H90H84.75ZM84.75 60.25H79.5Z" fill="#EFEFEF"/>
<path d="M84.75 60.25H79.5M84.75 55V60.25V55ZM84.75 65.5V60.25V65.5ZM84.75 60.25H90H84.75Z" stroke="#EFEFEF" stroke-width="2" stroke-linecap="round" stroke-linejoin="round"/>
<path fill-rule="evenodd" clip-rule="evenodd" d="M74.25 55H60.25C58.8576 55 57.5223 55.5531 56.5377 56.5377C55.5531 57.5223 55 58.8576 55 60.25V78.625C55 78.7755 55.0193 78.9225 55.056 79.0625C55.019 79.2054 55.0001 79.3524 55 79.5V84.75C55 86.1424 55.5531 87.4777 56.5377 88.4623C57.5223 89.4469 58.8576 90 60.25 90H84.75C86.1424 90 87.4777 89.4469 88.4623 88.4623C89.4469 87.4777 90 86.1424 90 84.75V72.5C89.9999 72.3524 89.981 72.2054 89.944 72.0625C89.981 71.9196 89.9999 71.7726 90 71.625V70.75H86.5V70.778C78.9803 71.0212 73.55 72.8325 69.735 75.3682C71.1805 75.881 72.7975 76.6108 74.383 77.5663C76.8313 79.0363 79.3198 81.1013 80.9945 83.8365C81.1145 84.0325 81.1946 84.2503 81.2305 84.4773C81.2663 84.7043 81.257 84.9362 81.2032 85.1596C81.1494 85.383 81.0522 85.5937 80.917 85.7795C80.7818 85.9654 80.6113 86.1228 80.4153 86.2428C80.2192 86.3627 80.0015 86.4429 79.7745 86.4787C79.5474 86.5145 79.3156 86.5053 79.0922 86.4515C78.8687 86.3977 78.6581 86.3004 78.4722 86.1652C78.2864 86.03 78.129 85.8595 78.009 85.6635C76.721 83.5582 74.7225 81.852 72.5805 80.5657C70.442 79.2812 68.2667 78.4798 66.7582 78.1298C64.6332 77.6445 62.4574 77.4177 60.278 77.4543H60.2395C59.6305 77.463 59.0495 77.4893 58.5 77.533V60.25C58.5 59.7859 58.6844 59.3408 59.0126 59.0126C59.3408 58.6844 59.7859 58.5 60.25 58.5H74.25V55ZM66.375 62C65.421 62.0071 64.4918 62.3051 63.7115 62.854C62.714 63.5715 62 64.7545 62 66.375C62 67.9955 62.714 69.1767 63.7115 69.8942C64.4913 70.4444 65.4207 70.743 66.375 70.75C67.0925 70.75 68.1303 70.5487 69.0385 69.8942C70.036 69.1767 70.75 67.9955 70.75 66.375C70.75 64.7545 70.036 63.5732 69.0385 62.854C68.2585 62.3044 67.3291 62.0065 66.375 62V62Z" fill="#EFEFEF"/>
<circle r="72" transform="matrix(-1 0 0 1 72.5 72.5)" stroke="white"/>
</svg>
