<svg width="29" height="24" viewBox="0 0 29 24" fill="none" xmlns="http://www.w3.org/2000/svg">
<path d="M9 11.5C10.4587 11.5 11.8576 10.9205 12.8891 9.88909C13.9205 8.85764 14.5 7.45869 14.5 6C14.5 4.54131 13.9205 3.14236 12.8891 2.11091C11.8576 1.07946 10.4587 0.5 9 0.5C7.54131 0.5 6.14236 1.07946 5.11091 2.11091C4.07946 3.14236 3.5 4.54131 3.5 6C3.5 7.45869 4.07946 8.85764 5.11091 9.88909C6.14236 10.9205 7.54131 11.5 9 11.5ZM21.375 11.5C22.469 11.5 23.5182 11.0654 24.2918 10.2918C25.0654 9.51823 25.5 8.46902 25.5 7.375C25.5 6.28098 25.0654 5.23177 24.2918 4.45818C23.5182 3.6846 22.469 3.25 21.375 3.25C20.281 3.25 19.2318 3.6846 18.4582 4.45818C17.6846 5.23177 17.25 6.28098 17.25 7.375C17.25 8.46902 17.6846 9.51823 18.4582 10.2918C19.2318 11.0654 20.281 11.5 21.375 11.5ZM4.1875 14.25C2.29 14.25 0.75 15.79 0.75 17.6875C0.75 17.6875 0.75 23.875 9 23.875C15.5395 23.875 16.8953 19.9865 17.1758 18.375C17.25 17.9543 17.25 17.6875 17.25 17.6875C17.25 15.79 15.71 14.25 13.8125 14.25H4.1875ZM19.989 18.65C19.9573 19.1485 19.8744 19.6425 19.7415 20.124C19.5683 20.7372 19.2822 21.4715 18.801 22.2278C19.6448 22.4168 20.5076 22.5082 21.3722 22.5C28.2472 22.5 28.2472 17.6875 28.2472 17.6875C28.2472 15.79 26.7072 14.25 24.8097 14.25H18.955C19.615 15.2345 19.9972 16.4143 19.9972 17.6875V18.375L19.989 18.65Z" fill="white"/>
</svg>
