<svg width="32" height="32" viewBox="0 0 32 32" fill="none" xmlns="http://www.w3.org/2000/svg">
<rect width="32" height="32" rx="5" transform="matrix(-1 0 0 1 32 0)" fill="#29ABE2"/>
<path d="M20.8238 10.3507C21.0657 10.1233 21.3877 9.99754 21.7217 10C22.0557 10.0025 22.3757 10.1331 22.6141 10.3641C22.8525 10.5951 22.9907 10.9085 22.9995 11.2383C23.0084 11.568 22.8871 11.8882 22.6614 12.1313L15.809 20.5935C15.6912 20.7188 15.549 20.8194 15.3909 20.8892C15.2328 20.959 15.062 20.9966 14.8889 20.9998C14.7158 21.0029 14.5437 20.9716 14.3831 20.9076C14.2225 20.8436 14.0766 20.7483 13.9542 20.6274L9.40996 16.1403C9.28341 16.0238 9.18191 15.8834 9.11151 15.7274C9.04111 15.5714 9.00325 15.403 9.0002 15.2322C8.99715 15.0614 9.02896 14.8918 9.09375 14.7334C9.15853 14.575 9.25495 14.4312 9.37726 14.3104C9.49957 14.1896 9.64527 14.0944 9.80565 14.0304C9.96604 13.9665 10.1378 13.9351 10.3108 13.9381C10.4837 13.9411 10.6543 13.9785 10.8123 14.048C10.9703 14.1175 11.1125 14.2177 11.2304 14.3427L14.8266 17.892L20.7912 10.388C20.8019 10.375 20.8134 10.3625 20.8255 10.3507H20.8238Z" fill="#EFEFEF"/>
</svg>
