<svg width="153" height="143" viewBox="0 0 153 143" fill="none" xmlns="http://www.w3.org/2000/svg">
<g opacity="0.5">
<path d="M68.8743 27.6397C72.4376 27.6397 75.0234 25.1858 75.4176 22.5726H72.5165C72.2957 23.7517 70.7821 24.9787 68.9374 24.9787C66.6039 24.9787 64.8696 23.2259 64.8696 20.8198C64.8696 18.3978 66.6039 16.661 68.9374 16.661C70.7821 16.661 72.0908 17.6489 72.3903 18.8918H75.2914C74.7711 16.1511 72.4061 14 68.8743 14C64.9169 14 62 16.8841 62 20.8198C62 24.7556 64.9169 27.6397 68.8743 27.6397Z" fill="#D8D8D8"/>
<path d="M83.4416 27.6397C87.4306 27.6397 90.379 24.7556 90.379 20.8198C90.379 16.8841 87.4306 14 83.4416 14C79.4526 14 76.5042 16.8841 76.5042 20.8198C76.5042 24.7556 79.4526 27.6397 83.4416 27.6397ZM83.4416 25.0265C81.1081 25.0265 79.3738 23.2578 79.3738 20.8198C79.3738 18.366 81.1081 16.6132 83.4416 16.6132C85.7751 16.6132 87.5095 18.366 87.5095 20.8198C87.5095 23.2578 85.7751 25.0265 83.4416 25.0265Z" fill="#D8D8D8"/>
<path d="M92.0842 27.321H94.9537V20.1984L97.9337 25.1858H99.668L102.648 20.1984V27.321H105.517V14.3346H103.231L98.8008 21.6006L94.3704 14.3346H92.0842V27.321Z" fill="#D8D8D8"/>
<path d="M107.789 14.3346V27.321H110.659V14.3346H107.789Z" fill="#D8D8D8"/>
<path d="M112.932 27.321H115.802V19.3539L122.219 27.1616H124.615V14.1753H121.746V22.1424L115.329 14.3346H112.932V27.321Z" fill="#D8D8D8"/>
<path d="M133.189 14C129.231 14 126.314 16.8841 126.314 20.8198C126.314 24.7556 129.231 27.6397 133.189 27.6397C137.083 27.6397 140 24.7556 140 20.8198V20.055H133.015V22.5089H136.941C136.642 23.7836 135.254 25.0265 133.252 25.0265C130.918 25.0265 129.184 23.2578 129.184 20.8198C129.184 18.3978 130.918 16.661 133.252 16.661C134.813 16.661 136.027 17.394 136.563 18.35H139.716C138.975 15.9121 136.547 14 133.189 14Z" fill="#D8D8D8"/>
<path d="M90.8464 34.3763C87.9453 34.3763 85.6433 35.7785 85.6433 38.1208C85.6433 40.5587 87.1569 41.7219 89.9477 42.2478C92.2338 42.678 93.101 43.0923 93.101 44.128C93.101 44.9725 92.2338 45.5621 91.0671 45.5621C89.4274 45.5621 88.3552 44.7335 88.1975 43.4906H85.2491C85.3753 46.2632 87.693 48 90.8621 48C93.7317 48 96.0494 46.4863 96.0494 44.0005C96.0494 42.0566 95.0403 40.5747 92.0762 39.9532C89.5692 39.4274 88.5759 39.0928 88.5759 38.1208C88.5759 37.34 89.317 36.7983 90.6572 36.7983C92.0289 36.7983 92.8645 37.4834 93.0379 38.6148H96.0021C95.8602 36.145 93.7159 34.3763 90.8464 34.3763Z" fill="#D8D8D8"/>
<path d="M104.105 48C108.094 48 111.042 45.1159 111.042 41.1802C111.042 37.2444 108.094 34.3603 104.105 34.3603C100.116 34.3603 97.1674 37.2444 97.1674 41.1802C97.1674 45.1159 100.116 48 104.105 48ZM104.105 45.3868C101.771 45.3868 100.037 43.6181 100.037 41.1802C100.037 38.7263 101.771 36.9735 104.105 36.9735C106.438 36.9735 108.173 38.7263 108.173 41.1802C108.173 43.6181 106.438 45.3868 104.105 45.3868Z" fill="#D8D8D8"/>
<path d="M119.117 48C123.106 48 126.055 45.1159 126.055 41.1802C126.055 37.2444 123.106 34.3603 119.117 34.3603C115.128 34.3603 112.18 37.2444 112.18 41.1802C112.18 45.1159 115.128 48 119.117 48ZM119.117 45.3868C116.784 45.3868 115.049 43.6181 115.049 41.1802C115.049 38.7263 116.784 36.9735 119.117 36.9735C121.451 36.9735 123.185 38.7263 123.185 41.1802C123.185 43.6181 121.451 45.3868 119.117 45.3868Z" fill="#D8D8D8"/>
<path d="M127.76 47.6813H130.629V39.7142L137.046 47.522H139.443V34.5356H136.573V42.5027L130.156 34.695H127.76V47.6813Z" fill="#D8D8D8"/>
<path d="M142.757 57C142.975 57 143.152 57.1772 143.152 57.3949V65.6109H142.357V57.3949C142.357 57.1772 142.534 57 142.752 57H142.757Z" fill="#3266EB"/>
<path d="M143.643 57.9106V61.7579L148.533 59.3786L144.468 57.3993C144.088 57.212 143.648 57.4904 143.648 57.9106H143.643Z" fill="#3266EB"/>
<path d="M152.577 63.0645V142.749H112.1C107.63 142.749 104 139.12 104 134.65V111.642C104 84.8322 125.768 63.0645 152.577 63.0645Z" fill="#3266EB"/>
<path d="M120.058 120.451L152.578 142.75V117.272L139.993 107.451H120.058V120.451Z" fill="#215AD8"/>
<path d="M119.232 107.456V110.782C119.232 111.238 119.602 111.607 120.058 111.607H122.417C122.872 111.607 123.242 111.238 123.242 110.782V107.456C123.242 107.001 122.872 106.631 122.417 106.631H120.058C119.602 106.631 119.232 107.001 119.232 107.456Z" fill="#E1FBFF"/>
<path d="M127.605 107.456V110.782C127.605 111.238 127.975 111.607 128.431 111.607H130.79C131.245 111.607 131.615 111.238 131.615 110.782V107.456C131.615 107.001 131.245 106.631 130.79 106.631H128.431C127.975 106.631 127.605 107.001 127.605 107.456Z" fill="#E1FBFF"/>
<path d="M135.983 107.451V110.776C135.983 111.232 136.353 111.602 136.809 111.602H139.168C139.623 111.602 139.993 111.232 139.993 110.776V107.451C139.993 106.995 139.623 106.625 139.168 106.625H136.809C136.353 106.625 135.983 106.995 135.983 107.451Z" fill="#E1FBFF"/>
<path d="M119.232 116.3V119.626C119.232 120.082 119.602 120.451 120.058 120.451H122.417C122.872 120.451 123.242 120.082 123.242 119.626V116.3C123.242 115.844 122.872 115.475 122.417 115.475H120.058C119.602 115.475 119.232 115.844 119.232 116.3Z" fill="#E1FBFF"/>
<path d="M127.605 116.3V119.626C127.605 120.082 127.975 120.451 128.431 120.451H130.79C131.245 120.451 131.615 120.082 131.615 119.626V116.3C131.615 115.844 131.245 115.475 130.79 115.475H128.431C127.975 115.475 127.605 115.844 127.605 116.3Z" fill="#E1FBFF"/>
<path d="M135.979 116.3V119.626C135.979 120.082 136.348 120.451 136.804 120.451H139.163C139.618 120.451 139.988 120.082 139.988 119.626V116.3C139.988 115.844 139.618 115.475 139.163 115.475H136.804C136.348 115.475 135.979 115.844 135.979 116.3Z" fill="#E1FBFF"/>
<path d="M70.4565 0H8.09962C3.62458 0 0 3.62458 0 8.09962V45.2768C1.18457 42.3407 3.6347 39.678 8.17049 39.678H33.3451C36.0787 20.6793 51.3971 4.11562 70.4565 0Z" fill="#2DB9EA"/>
<path d="M16.2295 19.8095C17.317 19.8095 18.1987 18.9279 18.1987 17.8403C18.1987 16.7527 17.317 15.8711 16.2295 15.8711C15.1419 15.8711 14.2603 16.7527 14.2603 17.8403C14.2603 18.9279 15.1419 19.8095 16.2295 19.8095Z" fill="white"/>
<path d="M23.1445 19.8095C24.2321 19.8095 25.1137 18.9279 25.1137 17.8403C25.1137 16.7527 24.2321 15.8711 23.1445 15.8711C22.0569 15.8711 21.1753 16.7527 21.1753 17.8403C21.1753 18.9279 22.0569 19.8095 23.1445 19.8095Z" fill="white"/>
<path d="M30.0342 19.8095C31.1217 19.8095 32.0034 18.9279 32.0034 17.8403C32.0034 16.7527 31.1217 15.8711 30.0342 15.8711C28.9466 15.8711 28.0649 16.7527 28.0649 17.8403C28.0649 18.9279 28.9466 19.8095 30.0342 19.8095Z" fill="white"/>
</g>
</svg>
