<svg width="263" height="292" viewBox="0 0 263 292" fill="none" xmlns="http://www.w3.org/2000/svg">
<g opacity="0.05">
<path d="M249.533 0C250.275 0 250.879 0.603341 250.879 1.34459V29.3224H248.17V1.34459C248.188 0.603341 248.791 0 249.533 0Z" fill="#3266EB"/>
<path d="M252.552 3.10295V16.2041L269.217 8.10206L255.364 1.36188C254.07 0.724061 252.57 1.67217 252.57 3.10295H252.552Z" fill="#3266EB"/>
<path d="M283 20.6689V292H145.062C129.83 292 117.461 279.64 117.461 264.419V186.071C117.461 94.7764 191.64 20.6516 283 20.6516V20.6689Z" fill="#3266EB"/>
<path d="M172.164 216.065L283 292V205.257L240.097 171.814H172.164V216.065Z" fill="#215AD8"/>
<path d="M169.352 171.797V183.123C169.352 184.675 170.61 185.933 172.163 185.933H180.202C181.755 185.933 183.014 184.675 183.014 183.123V171.797C183.014 170.245 181.755 168.987 180.202 168.987H172.163C170.61 168.987 169.352 170.245 169.352 171.797Z" fill="#E1FBFF"/>
<path d="M197.884 171.814V183.14C197.884 184.692 199.143 185.95 200.696 185.95H208.735C210.288 185.95 211.547 184.692 211.547 183.14V171.814C211.547 170.262 210.288 169.004 208.735 169.004H200.696C199.143 169.004 197.884 170.262 197.884 171.814Z" fill="#E1FBFF"/>
<path d="M226.435 171.814V183.14C226.435 184.692 227.694 185.95 229.246 185.95H237.285C238.838 185.95 240.097 184.692 240.097 183.14V171.814C240.097 170.262 238.838 169.004 237.285 169.004H229.246C227.694 169.004 226.435 170.262 226.435 171.814Z" fill="#E1FBFF"/>
<path d="M169.352 201.93V213.255C169.352 214.807 170.61 216.065 172.163 216.065H180.202C181.755 216.065 183.014 214.807 183.014 213.255V201.93C183.014 200.378 181.755 199.12 180.202 199.12H172.163C170.61 199.12 169.352 200.378 169.352 201.93Z" fill="#E1FBFF"/>
<path d="M197.884 201.93V213.255C197.884 214.807 199.143 216.065 200.696 216.065H208.735C210.288 216.065 211.547 214.807 211.547 213.255V201.93C211.547 200.378 210.288 199.12 208.735 199.12H200.696C199.143 199.12 197.884 200.378 197.884 201.93Z" fill="#E1FBFF"/>
<path d="M226.435 201.93V213.255C226.435 214.807 227.693 216.065 229.246 216.065H237.285C238.838 216.065 240.097 214.807 240.097 213.255V201.93C240.097 200.378 238.838 199.12 237.285 199.12H229.246C227.693 199.12 226.435 200.378 226.435 201.93Z" fill="#E1FBFF"/>
<path d="M240.097 20.6687H27.6013C12.3516 20.6687 0 33.0113 0 48.25V174.848C4.0367 164.85 12.3861 155.783 27.8429 155.783H113.631C122.947 91.0873 175.148 34.6835 240.097 20.6687Z" fill="#2DB9EA"/>
<path d="M55.3063 88.105C59.0124 88.105 62.0169 85.1028 62.0169 81.3993C62.0169 77.6959 59.0124 74.6936 55.3063 74.6936C51.6001 74.6936 48.5957 77.6959 48.5957 81.3993C48.5957 85.1028 51.6001 88.105 55.3063 88.105Z" fill="white"/>
<path d="M78.8707 88.105C82.5769 88.105 85.5813 85.1028 85.5813 81.3993C85.5813 77.6959 82.5769 74.6936 78.8707 74.6936C75.1646 74.6936 72.1602 77.6959 72.1602 81.3993C72.1602 85.1028 75.1646 88.105 78.8707 88.105Z" fill="white"/>
<path d="M102.349 88.105C106.055 88.105 109.06 85.1028 109.06 81.3993C109.06 77.6959 106.055 74.6936 102.349 74.6936C98.6431 74.6936 95.6387 77.6959 95.6387 81.3993C95.6387 85.1028 98.6431 88.105 102.349 88.105Z" fill="white"/>
</g>
</svg>
