<svg width="18" height="22" viewBox="0 0 18 22" fill="none" xmlns="http://www.w3.org/2000/svg">
<path d="M17.0054 14.2893H1.92899C1.38067 14.2893 0.936523 13.8294 0.936523 13.2617V8.46784C0.936523 8.16223 1.06673 7.87311 1.29387 7.67836L8.83282 1.17374C9.20029 0.856149 9.73558 0.856149 10.1031 1.17374L17.642 7.67836C17.8677 7.87311 17.9993 8.16223 17.9993 8.46784V13.2617C17.9993 13.8294 17.5552 14.2893 17.0069 14.2893H17.0054Z" fill="#3266EB"/>
<path d="M17.006 14.9799H11.708V20.5227C11.708 21.0905 12.1522 21.5504 12.7005 21.5504H17.006C17.5543 21.5504 17.9984 21.0905 17.9984 20.5227L17.9796 14.2354C17.9796 14.8031 17.5543 14.9799 17.006 14.9799Z" fill="#3266EB"/>
<path d="M1.29484 8.38397L1.50751 8.19971C1.17042 8.36449 0.9375 8.71804 0.9375 9.12851V9.17345C0.9375 8.86934 1.06771 8.58022 1.29484 8.38397Z" fill="#3266EB"/>
<path d="M0.917969 14.2505L0.936776 20.4465C0.936776 21.0143 1.38092 21.4742 1.92924 21.4742H6.23473C6.78304 21.4742 7.22719 21.0143 7.22719 20.4465V14.9936H1.92924C1.38092 14.9936 0.917969 14.8168 0.917969 14.249V14.2505Z" fill="#3266EB"/>
<path d="M10.6473 7.43945L8.25586 11.6041L11.7078 14.2886H17.0057C17.554 14.2886 17.9982 13.8287 17.9982 13.261V11.685L10.6473 7.43945Z" fill="#215AD8"/>
<path d="M9.50488 11.9776C10.7977 11.9776 11.8457 10.8924 11.8457 9.55376C11.8457 8.21509 10.7977 7.12988 9.50488 7.12988C8.21208 7.12988 7.16406 8.21509 7.16406 9.55376C7.16406 10.8924 8.21208 11.9776 9.50488 11.9776Z" fill="#2DB9EA"/>
</svg>
