<svg width="254" height="254" viewBox="0 0 254 254" fill="none" xmlns="http://www.w3.org/2000/svg">
<g clip-path="url(#clip0_4642_948)">
<path d="M126.62 253.24C196.55 253.24 253.24 196.55 253.24 126.62C253.24 56.6897 196.55 0 126.62 0C56.6897 0 0 56.6897 0 126.62C0 196.55 56.6897 253.24 126.62 253.24Z" fill="#20A9E5"/>
<path d="M218.02 75.1806C226.7 66.0206 211.12 57.8706 209.56 68.4006C208.09 78.3406 203.92 81.8806 188.72 84.8106C185.42 85.4506 182.6 82.4806 183.3 79.1906C188.26 55.9706 180.55 30.5706 160.06 14.0806C148.49 4.77062 134.67 0.280625 120.76 0.140625C115.34 0.390625 109.93 0.990625 104.57 1.93062C91.4303 5.01062 79.0003 11.9506 69.1903 22.3806C57.6803 34.6206 49.3703 50.5506 47.8403 69.8606C45.5903 98.2806 37.2203 167.041 36.9003 204.921C36.8303 213.531 40.9303 220.101 46.3103 224.531C95.7003 265.131 168.78 262.731 215.39 216.901C230.77 201.781 241.46 183.691 247.47 164.451C249.45 158.101 252.6 145.941 244.86 133.691C236.11 119.831 223.4 118.321 215.87 114.691C209.32 111.541 207.38 102.541 212.76 104.741C222.82 108.861 244.62 106.151 242.3 85.0606C241.51 77.8506 236.31 72.6606 233.1 71.3006C224.96 67.8506 218.01 75.1806 218.01 75.1806H218.02Z" fill="#4FC9F3"/>
<path d="M159.8 58.4295C161.385 58.4295 162.67 57.1445 162.67 55.5595C162.67 53.9744 161.385 52.6895 159.8 52.6895C158.215 52.6895 156.93 53.9744 156.93 55.5595C156.93 57.1445 158.215 58.4295 159.8 58.4295Z" fill="white"/>
<path d="M168.3 58.4295C169.885 58.4295 171.17 57.1445 171.17 55.5595C171.17 53.9744 169.885 52.6895 168.3 52.6895C166.715 52.6895 165.43 53.9744 165.43 55.5595C165.43 57.1445 166.715 58.4295 168.3 58.4295Z" fill="white"/>
<path d="M160.82 67.1892C160.77 65.8892 161.67 64.7192 162.96 64.5692C163.93 64.4592 164.8 64.9092 165.28 65.6492C165.35 65.7592 165.5 65.7592 165.57 65.6492C166.05 64.9192 166.93 64.4592 167.89 64.5692C169.18 64.7192 170.08 65.8892 170.03 67.1892C170.01 67.8092 169.8 68.4492 169.33 68.9892C168.64 69.7892 166.96 71.7292 166.04 72.7892C165.71 73.1692 165.12 73.1692 164.78 72.7892C163.86 71.7292 162.19 69.7892 161.49 68.9892C161.02 68.4492 160.81 67.8092 160.79 67.1892H160.82Z" fill="white"/>
</g>
<defs>
<clipPath id="clip0_4642_948">
<rect width="253.24" height="253.24" fill="white"/>
</clipPath>
</defs>
</svg>
