<svg width="21" height="26" viewBox="0 0 21 26" fill="none" xmlns="http://www.w3.org/2000/svg">
<path d="M1.75956 17.5781L1.06916 19.7588L1.07054 19.7602C0.767538 20.7134 1.47869 21.6846 2.47624 21.6846H18.5242C19.5218 21.6846 20.2315 20.7134 19.9299 19.7602L19.2395 17.5795C18.6667 15.7714 18.3748 13.8872 18.3748 11.9905V9.30407C18.3748 4.94815 14.8481 1.41797 10.4995 1.41797C6.15099 1.41797 2.62429 4.94815 2.62429 9.30268V11.9891C2.62429 13.8858 2.33235 15.7701 1.75956 17.5781Z" stroke="#2F2F2F" stroke-width="1.7" stroke-miterlimit="10"/>
<path d="M13.6665 22.0469C13.4456 23.4791 12.1117 24.5802 10.4998 24.5802C8.88798 24.5802 7.5555 23.4791 7.33317 22.0469" stroke="#2F2F2F" stroke-width="1.7" stroke-miterlimit="10" stroke-linecap="round"/>
</svg>
