<svg width="9" height="13" viewBox="0 0 9 13" fill="none" xmlns="http://www.w3.org/2000/svg">
<path d="M7.83629 5.84291C8.57545 5.06048 8.64834 3.83273 7.92513 3.03662C7.38073 2.43755 6.5869 2.24735 5.88305 2.44211C5.78169 2.47058 5.68716 2.38744 5.70082 2.2838C5.79877 1.55945 5.50265 0.798652 4.83525 0.340807C3.94803 -0.268513 2.74192 -0.0293404 2.06654 0.807763C1.74195 1.2098 1.52442 1.7189 1.52328 2.31455C1.521 3.19152 1.51075 5.31787 1.50392 6.48412C1.50164 6.90438 1.87293 7.22784 2.28863 7.16975C3.44235 7.00575 5.54821 6.70735 6.4172 6.58663C7.00716 6.50462 7.48209 6.2199 7.83629 5.84405V5.84291Z" fill="#9ED1EE"/>
<path d="M0 0.52C0 0.232812 0.232812 0 0.52 0C0.807188 0 1.04 0.232812 1.04 0.52V13H0V0.52Z" fill="#9ED1EE"/>
</svg>
