<svg width="24" height="24" viewBox="0 0 24 24" fill="none" xmlns="http://www.w3.org/2000/svg">
<g clip-path="url(#clip0_3667_1375)">
<path d="M11.999 23.453C18.4225 23.453 23.6298 18.3258 23.6298 12.0009C23.6298 5.67611 18.4225 0.548828 11.999 0.548828C5.57546 0.548828 0.368164 5.67611 0.368164 12.0009C0.368164 18.3258 5.57546 23.453 11.999 23.453Z" fill="#3266EB"/>
<path d="M10.7223 5.00002H10.6212C10.5849 4.99949 10.5489 5.00771 10.5152 5.0242C10.4816 5.04069 10.4509 5.06513 10.4251 5.0961C10.3993 5.12707 10.3788 5.16396 10.3648 5.20462C10.3508 5.24528 10.3436 5.28891 10.3436 5.33297V9.79744C10.3436 9.88574 10.3147 9.97043 10.2632 10.0329C10.2118 10.0953 10.142 10.1304 10.0692 10.1304C10.0332 10.1306 9.99742 10.1221 9.96407 10.1054C9.93072 10.0887 9.90042 10.0642 9.87491 10.0333C9.84941 10.0023 9.82921 9.96554 9.81547 9.92506C9.80174 9.88458 9.79474 9.84121 9.79489 9.79744V5.33297C9.79489 5.24467 9.76599 5.15998 9.71454 5.09754C9.66309 5.0351 9.59331 5.00002 9.52055 5.00002H9.41947C9.34671 5.00002 9.27693 5.0351 9.22548 5.09754C9.17403 5.15998 9.14513 5.24467 9.14513 5.33297V9.83383C9.14371 9.91217 9.11735 9.9868 9.07159 10.0421C9.02584 10.0974 8.96422 10.129 8.89967 10.1304C8.83415 10.1308 8.77112 10.0999 8.72418 10.0444C8.67723 9.98895 8.6501 9.91333 8.64865 9.83383V5.33297C8.64879 5.2892 8.6418 5.24582 8.62806 5.20535C8.61433 5.16487 8.59413 5.1281 8.56862 5.09715C8.54312 5.06619 8.51282 5.04168 8.47947 5.02501C8.44611 5.00834 8.41037 4.99985 8.37431 5.00002H8.27434C8.20158 5.00002 8.1318 5.0351 8.08035 5.09754C8.0289 5.15998 8 5.24467 8 5.33297V10.59C8 10.6785 8.02887 10.7633 8.08029 10.8259C8.1317 10.8886 8.20148 10.924 8.27434 10.9243H8.87412C8.91019 10.9242 8.94593 10.9326 8.97928 10.9493C9.01263 10.966 9.04293 10.9905 9.06844 11.0215C9.09394 11.0524 9.11414 11.0892 9.12788 11.1297C9.14161 11.1701 9.14861 11.2135 9.14846 11.2573V18.6778C9.15077 18.7643 9.18069 18.8462 9.23189 18.9063C9.28309 18.9665 9.35156 19 9.4228 19H9.52388C9.59664 19 9.66642 18.9649 9.71787 18.9025C9.76932 18.84 9.79822 18.7554 9.79822 18.6671V11.2532C9.79807 11.2095 9.80507 11.1661 9.8188 11.1256C9.83254 11.0851 9.85274 11.0484 9.87825 11.0174C9.90375 10.9865 9.93405 10.9619 9.9674 10.9453C10.0008 10.9286 10.0365 10.9201 10.0726 10.9203H10.7257C10.7618 10.9203 10.7975 10.9116 10.8309 10.8948C10.8643 10.878 10.8945 10.8534 10.92 10.8223C10.9455 10.7912 10.9657 10.7544 10.9794 10.7138C10.9932 10.6733 11.0001 10.6298 11 10.586V5.32893C10.9996 5.2852 10.992 5.24201 10.9778 5.20182C10.9637 5.16163 10.9431 5.12522 10.9173 5.09468C10.8915 5.06413 10.861 5.04006 10.8276 5.02381C10.7941 5.00757 10.7584 4.99949 10.7223 5.00002Z" fill="white"/>
<path d="M14.5418 19C14.6634 19 14.7799 18.9585 14.8658 18.8847C14.9517 18.8109 15 18.7108 15 18.6064V5.39361C15 5.28922 14.9517 5.1891 14.8658 5.11528C14.7799 5.04147 14.6634 5 14.5418 5H14.0821C14.0821 5 12 5.07009 12 7.96553C12 10.4161 14.0821 11.1373 14.0821 11.1373V18.6064C14.0825 18.7109 14.1311 18.811 14.2173 18.8848C14.3035 18.9586 14.4202 19 14.5418 19Z" fill="white"/>
<path d="M11.9988 21.7452C17.4643 21.7452 21.8951 17.3826 21.8951 12.001C21.8951 6.61946 17.4643 2.25684 11.9988 2.25684C6.53325 2.25684 2.10254 6.61946 2.10254 12.001C2.10254 17.3826 6.53325 21.7452 11.9988 21.7452Z" stroke="#2DB9EA" stroke-miterlimit="10"/>
</g>
<defs>
<clipPath id="clip0_3667_1375">
<rect width="24" height="24" fill="white"/>
</clipPath>
</defs>
</svg>
