<svg width="106" height="107" viewBox="0 0 106 107" fill="none" xmlns="http://www.w3.org/2000/svg">
<g opacity="0.2" clip-path="url(#clip0_4907_701)">
<path d="M93.4646 0C93.7424 0 93.9685 0.221087 93.9685 0.492709V10.7449H92.9541V0.492709C92.9606 0.221087 93.1867 0 93.4646 0Z" fill="#3266EB"/>
<path d="M94.5957 1.13796V5.93872L100.837 2.96983L95.6489 0.499969C95.1643 0.266248 94.6022 0.613671 94.6022 1.13796H94.5957Z" fill="#3266EB"/>
<path d="M106 7.57468V107.001H54.3344C48.6289 107.001 43.9961 102.472 43.9961 96.894V68.1842C43.9961 34.7305 71.7803 7.56836 106 7.56836V7.57468Z" fill="#3266EB"/>
<path d="M64.4854 79.1742L106 107V75.2135L89.9305 62.959H64.4854V79.1742Z" fill="#215AD8"/>
<path d="M63.4316 62.9531V67.1032C63.4316 67.6718 63.9032 68.1328 64.4849 68.1328H67.4959C68.0776 68.1328 68.5491 67.6718 68.5491 67.1032V62.9531C68.5491 62.3844 68.0776 61.9234 67.4959 61.9234H64.4849C63.9032 61.9234 63.4316 62.3844 63.4316 62.9531Z" fill="#E1FBFF"/>
<path d="M74.1191 62.9589V67.109C74.1191 67.6777 74.5907 68.1387 75.1724 68.1387H78.1834C78.7651 68.1387 79.2366 67.6777 79.2366 67.109V62.9589C79.2366 62.3903 78.7651 61.9293 78.1834 61.9293H75.1724C74.5907 61.9293 74.1191 62.3903 74.1191 62.9589Z" fill="#E1FBFF"/>
<path d="M84.8125 62.9589V67.109C84.8125 67.6777 85.284 68.1387 85.8657 68.1387H88.8767C89.4584 68.1387 89.93 67.6777 89.93 67.109V62.9589C89.93 62.3903 89.4584 61.9293 88.8767 61.9293H85.8657C85.284 61.9293 84.8125 62.3903 84.8125 62.9589Z" fill="#E1FBFF"/>
<path d="M63.4316 73.996V78.1461C63.4316 78.7148 63.9032 79.1758 64.4849 79.1758H67.4959C68.0776 79.1758 68.5491 78.7148 68.5491 78.1461V73.996C68.5491 73.4274 68.0776 72.9664 67.4959 72.9664H64.4849C63.9032 72.9664 63.4316 73.4274 63.4316 73.996Z" fill="#E1FBFF"/>
<path d="M74.1191 73.996V78.1461C74.1191 78.7148 74.5907 79.1758 75.1724 79.1758H78.1834C78.7651 79.1758 79.2366 78.7148 79.2366 78.1461V73.996C79.2366 73.4274 78.7651 72.9664 78.1834 72.9664H75.1724C74.5907 72.9664 74.1191 73.4274 74.1191 73.996Z" fill="#E1FBFF"/>
<path d="M84.8125 73.996V78.1462C84.8125 78.7148 85.284 79.1758 85.8657 79.1758H88.8767C89.4584 79.1758 89.93 78.7148 89.93 78.1462V73.996C89.93 73.4274 89.4584 72.9664 88.8767 72.9664H85.8657C85.284 72.9664 84.8125 73.4274 84.8125 73.996Z" fill="#E1FBFF"/>
<path d="M89.9304 7.57422H10.3383C4.62639 7.57422 0 12.097 0 17.6811V64.0715C1.51198 60.4078 4.63932 57.0852 10.4288 57.0852H42.5615C46.0507 33.3783 65.603 12.7098 89.9304 7.57422Z" fill="#2DB9EA"/>
<path d="M20.7157 32.2856C22.1038 32.2856 23.2292 31.1854 23.2292 29.8283C23.2292 28.4712 22.1038 27.3711 20.7157 27.3711C19.3275 27.3711 18.2021 28.4712 18.2021 29.8283C18.2021 31.1854 19.3275 32.2856 20.7157 32.2856Z" fill="white"/>
<path d="M29.5418 32.2856C30.93 32.2856 32.0553 31.1854 32.0553 29.8283C32.0553 28.4712 30.93 27.3711 29.5418 27.3711C28.1537 27.3711 27.0283 28.4712 27.0283 29.8283C27.0283 31.1854 28.1537 32.2856 29.5418 32.2856Z" fill="white"/>
<path d="M38.3358 32.2856C39.7239 32.2856 40.8493 31.1854 40.8493 29.8283C40.8493 28.4712 39.7239 27.3711 38.3358 27.3711C36.9476 27.3711 35.8223 28.4712 35.8223 29.8283C35.8223 31.1854 36.9476 32.2856 38.3358 32.2856Z" fill="white"/>
</g>
<defs>
<clipPath id="clip0_4907_701">
<rect width="106" height="107" fill="white"/>
</clipPath>
</defs>
</svg>
