<svg width="20" height="22" viewBox="0 0 20 22" fill="none" xmlns="http://www.w3.org/2000/svg">
<path opacity="0.4" d="M6.93416 8.41675H2.85745C2.33845 8.41675 1.91772 8.83062 1.91772 9.34116V19.5219C1.91772 20.0324 2.33845 20.4463 2.85745 20.4463H6.93416C7.45316 20.4463 7.87389 20.0324 7.87389 19.5219V9.34116C7.87389 8.83062 7.45316 8.41675 6.93416 8.41675Z" fill="url(#paint0_radial_489_1319)"/>
<g opacity="0.3" filter="url(#filter0_bd_489_1319)">
<path d="M6.93416 8.35474H2.85745C2.33845 8.35474 1.91772 8.76861 1.91772 9.27915V19.4598C1.91772 19.9704 2.33845 20.3843 2.85745 20.3843H6.93416C7.45316 20.3843 7.87389 19.9704 7.87389 19.4598V9.27915C7.87389 8.76861 7.45316 8.35474 6.93416 8.35474Z" fill="url(#paint1_radial_489_1319)" fill-opacity="0.7"/>
</g>
<g opacity="0.6" filter="url(#filter1_bd_489_1319)">
<path d="M17.1041 8.41675H13.0274C12.5084 8.41675 12.0876 8.83062 12.0876 9.34116V19.5219C12.0876 20.0324 12.5084 20.4463 13.0274 20.4463H17.1041C17.6231 20.4463 18.0438 20.0324 18.0438 19.5219V9.34116C18.0438 8.83062 17.6231 8.41675 17.1041 8.41675Z" fill="url(#paint2_radial_489_1319)" fill-opacity="0.5"/>
</g>
<g opacity="0.7" filter="url(#filter2_bd_489_1319)">
<path d="M17.1028 13.9834H2.82742C2.30824 13.9834 1.8877 13.5697 1.8877 13.059V8.74689C1.8877 8.47199 2.01098 8.21191 2.22605 8.03673L9.36441 2.1857C9.71235 1.90002 10.2192 1.90002 10.5671 2.1857L17.7055 8.03673C17.9192 8.21191 18.0439 8.47199 18.0439 8.74689V13.059C18.0439 13.5697 17.6233 13.9834 17.1041 13.9834H17.1028Z" fill="url(#paint3_linear_489_1319)" fill-opacity="0.3"/>
</g>
<defs>
<filter id="filter0_bd_489_1319" x="-3.08228" y="3.35474" width="15.9561" height="22.0295" filterUnits="userSpaceOnUse" color-interpolation-filters="sRGB">
<feFlood flood-opacity="0" result="BackgroundImageFix"/>
<feGaussianBlur in="BackgroundImage" stdDeviation="2.5"/>
<feComposite in2="SourceAlpha" operator="in" result="effect1_backgroundBlur_489_1319"/>
<feColorMatrix in="SourceAlpha" type="matrix" values="0 0 0 0 0 0 0 0 0 0 0 0 0 0 0 0 0 0 127 0" result="hardAlpha"/>
<feOffset/>
<feGaussianBlur stdDeviation="0.75"/>
<feColorMatrix type="matrix" values="0 0 0 0 0.160784 0 0 0 0 0.670588 0 0 0 0 0.886275 0 0 0 0.75 0"/>
<feBlend mode="normal" in2="effect1_backgroundBlur_489_1319" result="effect2_dropShadow_489_1319"/>
<feBlend mode="normal" in="SourceGraphic" in2="effect2_dropShadow_489_1319" result="shape"/>
</filter>
<filter id="filter1_bd_489_1319" x="7.08765" y="3.41675" width="15.9561" height="22.0295" filterUnits="userSpaceOnUse" color-interpolation-filters="sRGB">
<feFlood flood-opacity="0" result="BackgroundImageFix"/>
<feGaussianBlur in="BackgroundImage" stdDeviation="2.5"/>
<feComposite in2="SourceAlpha" operator="in" result="effect1_backgroundBlur_489_1319"/>
<feColorMatrix in="SourceAlpha" type="matrix" values="0 0 0 0 0 0 0 0 0 0 0 0 0 0 0 0 0 0 127 0" result="hardAlpha"/>
<feOffset/>
<feGaussianBlur stdDeviation="0.75"/>
<feColorMatrix type="matrix" values="0 0 0 0 0.160784 0 0 0 0 0.670588 0 0 0 0 0.886275 0 0 0 0.75 0"/>
<feBlend mode="normal" in2="effect1_backgroundBlur_489_1319" result="effect2_dropShadow_489_1319"/>
<feBlend mode="normal" in="SourceGraphic" in2="effect2_dropShadow_489_1319" result="shape"/>
</filter>
<filter id="filter2_bd_489_1319" x="-3.1123" y="-3.02856" width="26.1562" height="22.012" filterUnits="userSpaceOnUse" color-interpolation-filters="sRGB">
<feFlood flood-opacity="0" result="BackgroundImageFix"/>
<feGaussianBlur in="BackgroundImage" stdDeviation="2.5"/>
<feComposite in2="SourceAlpha" operator="in" result="effect1_backgroundBlur_489_1319"/>
<feColorMatrix in="SourceAlpha" type="matrix" values="0 0 0 0 0 0 0 0 0 0 0 0 0 0 0 0 0 0 127 0" result="hardAlpha"/>
<feOffset/>
<feGaussianBlur stdDeviation="0.75"/>
<feColorMatrix type="matrix" values="0 0 0 0 0.160784 0 0 0 0 0.670588 0 0 0 0 0.886275 0 0 0 0.75 0"/>
<feBlend mode="normal" in2="effect1_backgroundBlur_489_1319" result="effect2_dropShadow_489_1319"/>
<feBlend mode="normal" in="SourceGraphic" in2="effect2_dropShadow_489_1319" result="shape"/>
</filter>
<radialGradient id="paint0_radial_489_1319" cx="0" cy="0" r="1" gradientUnits="userSpaceOnUse" gradientTransform="translate(2.15337 9.83706) rotate(31.2394) scale(8.83109 17.2675)">
<stop offset="0.2" stop-color="white"/>
<stop offset="0.35" stop-color="#C6E8F7"/>
<stop offset="0.6" stop-color="#72C7EB"/>
<stop offset="0.77" stop-color="#3DB3E4"/>
<stop offset="0.85" stop-color="#29ABE2"/>
</radialGradient>
<radialGradient id="paint1_radial_489_1319" cx="0" cy="0" r="1" gradientUnits="userSpaceOnUse" gradientTransform="translate(2.15337 8.69702) rotate(65.6863) scale(11.312 21.8435)">
<stop offset="0.168328" stop-color="white"/>
<stop offset="0.321725" stop-color="#C6E8F7"/>
<stop offset="0.6" stop-color="#72C7EB"/>
<stop offset="0.77" stop-color="#3DB3E4"/>
<stop offset="0.85" stop-color="#29ABE2"/>
</radialGradient>
<radialGradient id="paint2_radial_489_1319" cx="0" cy="0" r="1" gradientUnits="userSpaceOnUse" gradientTransform="translate(13.0136 8.62427) rotate(63.2421) scale(9.43218 15.0504)">
<stop stop-color="white"/>
<stop offset="0.2" stop-color="#C6E8F7"/>
<stop offset="0.52" stop-color="#72C7EB"/>
<stop offset="0.74" stop-color="#3DB3E4"/>
<stop offset="0.85" stop-color="#29ABE2"/>
</radialGradient>
<linearGradient id="paint3_linear_489_1319" x1="3.42471" y1="7.34409" x2="12.4383" y2="13.6134" gradientUnits="userSpaceOnUse">
<stop offset="0.25" stop-color="white"/>
<stop offset="1" stop-color="#29ABE2"/>
</linearGradient>
</defs>
</svg>
