<svg width="290" height="290" viewBox="0 0 290 290" fill="none" xmlns="http://www.w3.org/2000/svg">
<path d="M70.5899 72.1602C65.2699 72.1602 60.95 76.4702 60.95 81.8002V161.61L69.8 150.55H131.71V220.43C131.71 227.11 137.13 232.52 143.81 232.52H214.9C221.58 232.52 226.99 227.11 226.99 220.43V72.1602H70.5899Z" fill="white"/>
<path d="M70.5899 72.1602C65.2699 72.1602 60.95 76.4702 60.95 81.8002V161.61L69.8 150.55H131.71V220.43C131.71 227.11 137.13 232.52 143.81 232.52H214.9C221.58 232.52 226.99 227.11 226.99 220.43V72.1602H70.5899Z" fill="white"/>
<g filter="url(#filter0_d_469_520)">
<path d="M227.05 72H70.6398C65.3198 72 60.9998 76.31 60.9998 81.64V161.45L69.8498 150.39H217.42C222.74 150.39 227.06 146.08 227.06 140.75V72H227.05Z" fill="url(#paint0_linear_469_520)"/>
</g>
<path d="M227.01 72.1602H104.77V150.68H227.01V72.1602Z" fill="url(#paint1_linear_469_520)"/>
<g opacity="0.6">
<path d="M209.41 50.8501C210.02 50.8501 210.52 51.3501 210.52 51.9601V72.1701H208.3V51.9601C208.3 51.3501 208.8 50.8501 209.41 50.8501Z" fill="#29ABE2"/>
<path d="M211.88 53.4001V64.1501L225.53 57.5001L214.18 51.9701C213.12 51.4501 211.89 52.2301 211.89 53.4001H211.88Z" fill="#29ABE2"/>
</g>
<g opacity="0.68" filter="url(#filter1_bd_469_520)">
<path d="M132.01 220.42C132.01 227.1 137.42 232.51 144.1 232.51H215.19C221.87 232.51 227.28 227.1 227.28 220.42V72.1602L209.91 72.2102C166.89 72.1802 132 107.05 132 150.07V220.41L132.01 220.42Z" fill="url(#paint2_linear_469_520)" fill-opacity="0.4"/>
</g>
<g opacity="0.89">
<path opacity="0.5" d="M163.15 178.36V184.26C163.15 184.923 163.687 185.46 164.35 185.46H168.21C168.873 185.46 169.41 184.923 169.41 184.26V178.36C169.41 177.697 168.873 177.16 168.21 177.16H164.35C163.687 177.16 163.15 177.697 163.15 178.36Z" fill="white"/>
<path opacity="0.5" d="M163.16 166.76V172.66C163.16 173.323 163.697 173.86 164.36 173.86H168.22C168.883 173.86 169.42 173.323 169.42 172.66V166.76C169.42 166.097 168.883 165.56 168.22 165.56H164.36C163.697 165.56 163.16 166.097 163.16 166.76Z" fill="white"/>
<path opacity="0.5" d="M176.23 178.37V184.27C176.23 184.933 176.767 185.47 177.43 185.47H181.29C181.953 185.47 182.49 184.933 182.49 184.27V178.37C182.49 177.707 181.953 177.17 181.29 177.17H177.43C176.767 177.17 176.23 177.707 176.23 178.37Z" fill="white"/>
<path opacity="0.5" d="M176.24 166.77V172.67C176.24 173.333 176.777 173.87 177.44 173.87H181.3C181.963 173.87 182.5 173.333 182.5 172.67V166.77C182.5 166.107 181.963 165.57 181.3 165.57H177.44C176.777 165.57 176.24 166.107 176.24 166.77Z" fill="white"/>
<path opacity="0.5" d="M189.31 178.36V184.26C189.31 184.923 189.847 185.46 190.51 185.46H194.37C195.033 185.46 195.57 184.923 195.57 184.26V178.36C195.57 177.697 195.033 177.16 194.37 177.16H190.51C189.847 177.16 189.31 177.697 189.31 178.36Z" fill="white"/>
<path opacity="0.5" d="M189.31 166.77V172.67C189.31 173.333 189.847 173.87 190.51 173.87H194.37C195.033 173.87 195.57 173.333 195.57 172.67V166.77C195.57 166.107 195.033 165.57 194.37 165.57H190.51C189.847 165.57 189.31 166.107 189.31 166.77Z" fill="white"/>
<path opacity="0.5" d="M165.79 198.93H178.21V229.57H163.16V201.56C163.16 200.11 164.34 198.93 165.79 198.93Z" fill="white"/>
<path opacity="0.5" d="M180.67 198.93H192.94C194.39 198.93 195.57 200.11 195.57 201.56V229.57H180.67V198.93Z" fill="white"/>
</g>
<g opacity="0.4" filter="url(#filter2_d_469_520)">
<path d="M227.05 72H70.6398C65.3198 72 60.9998 76.31 60.9998 81.64V161.45L69.8498 150.39H217.42C222.74 150.39 227.06 146.08 227.06 140.75V72H227.05Z" fill="url(#paint3_radial_469_520)"/>
</g>
<g opacity="0.3" filter="url(#filter3_b_469_520)">
<path d="M132.01 220.42C132.01 227.1 137.42 232.51 144.1 232.51H215.19C221.87 232.51 227.28 227.1 227.28 220.42V72.1602L209.91 72.2102C166.89 72.1802 132 107.05 132 150.07V220.41L132.01 220.42Z" fill="url(#paint4_linear_469_520)" fill-opacity="0.9"/>
</g>
<g opacity="0.75">
<path d="M92.5199 113.8C94.4419 113.8 95.9999 112.242 95.9999 110.32C95.9999 108.398 94.4419 106.84 92.5199 106.84C90.598 106.84 89.0399 108.398 89.0399 110.32C89.0399 112.242 90.598 113.8 92.5199 113.8Z" fill="white"/>
<path d="M104.77 113.8C106.692 113.8 108.25 112.242 108.25 110.32C108.25 108.398 106.692 106.84 104.77 106.84C102.848 106.84 101.29 108.398 101.29 110.32C101.29 112.242 102.848 113.8 104.77 113.8Z" fill="white"/>
<path d="M116.97 113.8C118.892 113.8 120.45 112.242 120.45 110.32C120.45 108.398 118.892 106.84 116.97 106.84C115.048 106.84 113.49 108.398 113.49 110.32C113.49 112.242 115.048 113.8 116.97 113.8Z" fill="white"/>
</g>
<defs>
<filter id="filter0_d_469_520" x="50.9998" y="62" width="186.06" height="109.45" filterUnits="userSpaceOnUse" color-interpolation-filters="sRGB">
<feFlood flood-opacity="0" result="BackgroundImageFix"/>
<feColorMatrix in="SourceAlpha" type="matrix" values="0 0 0 0 0 0 0 0 0 0 0 0 0 0 0 0 0 0 127 0" result="hardAlpha"/>
<feOffset/>
<feGaussianBlur stdDeviation="5"/>
<feColorMatrix type="matrix" values="0 0 0 0 0.160784 0 0 0 0 0.670588 0 0 0 0 0.886275 0 0 0 0.25 0"/>
<feBlend mode="normal" in2="BackgroundImageFix" result="effect1_dropShadow_469_520"/>
<feBlend mode="normal" in="SourceGraphic" in2="effect1_dropShadow_469_520" result="shape"/>
</filter>
<filter id="filter1_bd_469_520" x="122" y="62.1602" width="115.28" height="180.35" filterUnits="userSpaceOnUse" color-interpolation-filters="sRGB">
<feFlood flood-opacity="0" result="BackgroundImageFix"/>
<feGaussianBlur in="BackgroundImage" stdDeviation="5"/>
<feComposite in2="SourceAlpha" operator="in" result="effect1_backgroundBlur_469_520"/>
<feColorMatrix in="SourceAlpha" type="matrix" values="0 0 0 0 0 0 0 0 0 0 0 0 0 0 0 0 0 0 127 0" result="hardAlpha"/>
<feOffset/>
<feGaussianBlur stdDeviation="5"/>
<feColorMatrix type="matrix" values="0 0 0 0 0.160784 0 0 0 0 0.670588 0 0 0 0 0.886275 0 0 0 0.75 0"/>
<feBlend mode="normal" in2="effect1_backgroundBlur_469_520" result="effect2_dropShadow_469_520"/>
<feBlend mode="normal" in="SourceGraphic" in2="effect2_dropShadow_469_520" result="shape"/>
</filter>
<filter id="filter2_d_469_520" x="50.9998" y="62" width="186.06" height="109.45" filterUnits="userSpaceOnUse" color-interpolation-filters="sRGB">
<feFlood flood-opacity="0" result="BackgroundImageFix"/>
<feColorMatrix in="SourceAlpha" type="matrix" values="0 0 0 0 0 0 0 0 0 0 0 0 0 0 0 0 0 0 127 0" result="hardAlpha"/>
<feOffset/>
<feGaussianBlur stdDeviation="5"/>
<feColorMatrix type="matrix" values="0 0 0 0 0.160784 0 0 0 0 0.670588 0 0 0 0 0.886275 0 0 0 0.25 0"/>
<feBlend mode="normal" in2="BackgroundImageFix" result="effect1_dropShadow_469_520"/>
<feBlend mode="normal" in="SourceGraphic" in2="effect1_dropShadow_469_520" result="shape"/>
</filter>
<filter id="filter3_b_469_520" x="122" y="62.1602" width="115.28" height="180.35" filterUnits="userSpaceOnUse" color-interpolation-filters="sRGB">
<feFlood flood-opacity="0" result="BackgroundImageFix"/>
<feGaussianBlur in="BackgroundImage" stdDeviation="5"/>
<feComposite in2="SourceAlpha" operator="in" result="effect1_backgroundBlur_469_520"/>
<feBlend mode="normal" in="SourceGraphic" in2="effect1_backgroundBlur_469_520" result="shape"/>
</filter>
<linearGradient id="paint0_linear_469_520" x1="188.69" y1="128.34" x2="27.9898" y2="86.55" gradientUnits="userSpaceOnUse">
<stop stop-color="#29ABE2" stop-opacity="0.4"/>
<stop offset="0.06" stop-color="#3EB3E4" stop-opacity="0.46"/>
<stop offset="0.27" stop-color="#81CDEE" stop-opacity="0.65"/>
<stop offset="0.46" stop-color="#B7E2F5" stop-opacity="0.8"/>
<stop offset="0.62" stop-color="#DEF2FA" stop-opacity="0.91"/>
<stop offset="0.74" stop-color="#F6FBFD" stop-opacity="0.98"/>
<stop offset="0.81" stop-color="white"/>
</linearGradient>
<linearGradient id="paint1_linear_469_520" x1="104.77" y1="111.42" x2="227" y2="111.42" gradientUnits="userSpaceOnUse">
<stop stop-color="white" stop-opacity="0"/>
<stop offset="1" stop-color="white"/>
</linearGradient>
<linearGradient id="paint2_linear_469_520" x1="212.28" y1="173" x2="141.28" y2="114.5" gradientUnits="userSpaceOnUse">
<stop stop-color="#29ABE2"/>
<stop offset="0.74" stop-color="#F8FCFF" stop-opacity="0.98"/>
<stop offset="0.81" stop-color="white"/>
</linearGradient>
<radialGradient id="paint3_radial_469_520" cx="0" cy="0" r="1" gradientUnits="userSpaceOnUse" gradientTransform="translate(140.55 139.84) rotate(-142.433) scale(143.254 528.647)">
<stop stop-color="#29ABE2" stop-opacity="0.4"/>
<stop offset="0.06" stop-color="#3EB3E4" stop-opacity="0.46"/>
<stop offset="0.27" stop-color="#81CDEE" stop-opacity="0.65"/>
<stop offset="0.46" stop-color="#B7E2F5" stop-opacity="0.8"/>
<stop offset="0.62" stop-color="#DEF2FA" stop-opacity="0.91"/>
<stop offset="0.74" stop-color="#F6FBFD" stop-opacity="0.98"/>
<stop offset="0.81" stop-color="white"/>
</radialGradient>
<linearGradient id="paint4_linear_469_520" x1="218" y1="152" x2="141.28" y2="114.5" gradientUnits="userSpaceOnUse">
<stop stop-color="#14A7E6"/>
<stop offset="0.74" stop-color="#F8FCFF" stop-opacity="0.98"/>
<stop offset="0.81" stop-color="white"/>
</linearGradient>
</defs>
</svg>
