<?xml version="1.0" encoding="UTF-8"?><svg id="Layer_1" xmlns="http://www.w3.org/2000/svg" viewBox="0 0 289.58 289.58"><defs><style>.cls-1{fill:#fff;}.cls-2{fill:#3266eb;}.cls-3{fill:#e1fbff;}.cls-4{fill:#215ad8;}.cls-5{fill:#2db9ea;}</style></defs><g><path class="cls-2" d="M207.6,60.18h0c.43,0,.78,.35,.78,.78v16.23h-1.57v-16.23c0-.43,.35-.78,.78-.78Z"/><path class="cls-2" d="M209.35,61.98v7.6l9.66-4.7-8.03-3.91c-.75-.37-1.62,.18-1.62,1.01Z"/></g><path class="cls-2" d="M227,72.16h0V229.57h-79.96c-8.83,0-16-7.17-16-16v-45.45c0-52.96,43-95.96,95.96-95.96Z"/><polygon class="cls-4" points="162.76 185.52 227 229.57 227 179.24 202.14 159.84 162.76 159.84 162.76 185.52"/><g><rect class="cls-3" x="160.17" y="159.17" width="9.83" height="7.92" rx="1.63" ry="1.63" transform="translate(1.96 328.22) rotate(-90)"/><rect class="cls-3" x="176.71" y="159.17" width="9.83" height="7.92" rx="1.63" ry="1.63" transform="translate(18.5 344.76) rotate(-90)"/><rect class="cls-3" x="193.26" y="159.17" width="9.83" height="7.92" rx="1.63" ry="1.63" transform="translate(35.05 361.3) rotate(-90)"/><rect class="cls-3" x="160.17" y="176.64" width="9.83" height="7.92" rx="1.63" ry="1.63" transform="translate(-15.51 345.69) rotate(-90)"/><rect class="cls-3" x="176.71" y="176.64" width="9.83" height="7.92" rx="1.63" ry="1.63" transform="translate(1.03 362.23) rotate(-90)"/><rect class="cls-3" x="193.26" y="176.64" width="9.83" height="7.92" rx="1.63" ry="1.63" transform="translate(17.57 378.78) rotate(-90)"/></g><path class="cls-5" d="M202.14,72.16H78.96c-8.84,0-16,7.16-16,16v73.44c2.34-5.8,7.18-11.06,16.14-11.06h49.73c5.4-37.53,35.66-70.25,73.31-78.38Z"/><g><circle class="cls-1" cx="95.02" cy="107.4" r="3.89"/><circle class="cls-1" cx="108.68" cy="107.4" r="3.89"/><circle class="cls-1" cx="122.29" cy="107.4" r="3.89"/></g></svg>