<svg width="14" height="12" viewBox="0 0 14 12" fill="none" xmlns="http://www.w3.org/2000/svg">
<path d="M4.3335 6.00002C5.04074 6.00002 5.71902 5.71907 6.21911 5.21897C6.71921 4.71887 7.00016 4.0406 7.00016 3.33335C7.00016 2.62611 6.71921 1.94783 6.21911 1.44774C5.71902 0.947638 5.04074 0.666687 4.3335 0.666687C3.62625 0.666687 2.94797 0.947638 2.44788 1.44774C1.94778 1.94783 1.66683 2.62611 1.66683 3.33335C1.66683 4.0406 1.94778 4.71887 2.44788 5.21897C2.94797 5.71907 3.62625 6.00002 4.3335 6.00002ZM10.3335 6.00002C10.8639 6.00002 11.3726 5.78931 11.7477 5.41423C12.1228 5.03916 12.3335 4.53045 12.3335 4.00002C12.3335 3.46959 12.1228 2.96088 11.7477 2.58581C11.3726 2.21073 10.8639 2.00002 10.3335 2.00002C9.80306 2.00002 9.29436 2.21073 8.91928 2.58581C8.54421 2.96088 8.3335 3.46959 8.3335 4.00002C8.3335 4.53045 8.54421 5.03916 8.91928 5.41423C9.29436 5.78931 9.80306 6.00002 10.3335 6.00002ZM2.00016 7.33335C1.08016 7.33335 0.333496 8.08002 0.333496 9.00002C0.333496 9.00002 0.333496 12 4.3335 12C7.50416 12 8.1615 10.1147 8.2975 9.33335C8.3335 9.12935 8.3335 9.00002 8.3335 9.00002C8.3335 8.08002 7.58683 7.33335 6.66683 7.33335H2.00016ZM9.6615 9.46669C9.64614 9.7084 9.60593 9.94788 9.5415 10.1814C9.4575 10.4787 9.31883 10.8347 9.0855 11.2014C9.49462 11.293 9.91292 11.3373 10.3322 11.3334C13.6655 11.3334 13.6655 9.00002 13.6655 9.00002C13.6655 8.08002 12.9188 7.33335 11.9988 7.33335H9.16016C9.48016 7.81069 9.6655 8.38269 9.6655 9.00002V9.33335L9.6615 9.46669Z" fill="#A8A8A8"/>
</svg>
