<svg width="153" height="143" viewBox="0 0 153 143" fill="none" xmlns="http://www.w3.org/2000/svg">
<g opacity="0.5">
<path d="M142.757 57C142.975 57 143.152 57.1772 143.152 57.3949V65.6109H142.357V57.3949C142.357 57.1772 142.534 57 142.752 57H142.757Z" fill="#3266EB"/>
<path d="M143.643 57.9106V61.7579L148.533 59.3786L144.468 57.3993C144.088 57.212 143.648 57.4904 143.648 57.9106H143.643Z" fill="#3266EB"/>
<path d="M152.577 63.0645V142.749H112.1C107.63 142.749 104 139.12 104 134.65V111.642C104 84.8322 125.768 63.0645 152.577 63.0645Z" fill="#3266EB"/>
<path d="M120.058 120.451L152.578 142.75V117.272L139.993 107.451H120.058V120.451Z" fill="#215AD8"/>
<path d="M119.232 107.456V110.782C119.232 111.238 119.602 111.607 120.058 111.607H122.417C122.872 111.607 123.242 111.238 123.242 110.782V107.456C123.242 107.001 122.872 106.631 122.417 106.631H120.058C119.602 106.631 119.232 107.001 119.232 107.456Z" fill="#E1FBFF"/>
<path d="M127.605 107.456V110.782C127.605 111.238 127.975 111.607 128.431 111.607H130.79C131.245 111.607 131.615 111.238 131.615 110.782V107.456C131.615 107.001 131.245 106.631 130.79 106.631H128.431C127.975 106.631 127.605 107.001 127.605 107.456Z" fill="#E1FBFF"/>
<path d="M135.983 107.451V110.776C135.983 111.232 136.353 111.602 136.809 111.602H139.168C139.623 111.602 139.993 111.232 139.993 110.776V107.451C139.993 106.995 139.623 106.625 139.168 106.625H136.809C136.353 106.625 135.983 106.995 135.983 107.451Z" fill="#E1FBFF"/>
<path d="M119.232 116.3V119.626C119.232 120.082 119.602 120.451 120.058 120.451H122.417C122.872 120.451 123.242 120.082 123.242 119.626V116.3C123.242 115.844 122.872 115.475 122.417 115.475H120.058C119.602 115.475 119.232 115.844 119.232 116.3Z" fill="#E1FBFF"/>
<path d="M127.605 116.3V119.626C127.605 120.082 127.975 120.451 128.431 120.451H130.79C131.245 120.451 131.615 120.082 131.615 119.626V116.3C131.615 115.844 131.245 115.475 130.79 115.475H128.431C127.975 115.475 127.605 115.844 127.605 116.3Z" fill="#E1FBFF"/>
<path d="M135.979 116.3V119.626C135.979 120.082 136.348 120.451 136.804 120.451H139.163C139.618 120.451 139.988 120.082 139.988 119.626V116.3C139.988 115.844 139.618 115.475 139.163 115.475H136.804C136.348 115.475 135.979 115.844 135.979 116.3Z" fill="#E1FBFF"/>
<path d="M70.4565 0H8.09962C3.62458 0 0 3.62458 0 8.09962V45.2768C1.18457 42.3407 3.6347 39.678 8.17049 39.678H33.3451C36.0787 20.6793 51.3971 4.11562 70.4565 0Z" fill="#2DB9EA"/>
<path d="M16.2295 19.8095C17.317 19.8095 18.1987 18.9279 18.1987 17.8403C18.1987 16.7527 17.317 15.8711 16.2295 15.8711C15.1419 15.8711 14.2603 16.7527 14.2603 17.8403C14.2603 18.9279 15.1419 19.8095 16.2295 19.8095Z" fill="white"/>
<path d="M23.1445 19.8095C24.2321 19.8095 25.1137 18.9279 25.1137 17.8403C25.1137 16.7527 24.2321 15.8711 23.1445 15.8711C22.0569 15.8711 21.1753 16.7527 21.1753 17.8403C21.1753 18.9279 22.0569 19.8095 23.1445 19.8095Z" fill="white"/>
<path d="M30.0342 19.8095C31.1217 19.8095 32.0034 18.9279 32.0034 17.8403C32.0034 16.7527 31.1217 15.8711 30.0342 15.8711C28.9466 15.8711 28.0649 16.7527 28.0649 17.8403C28.0649 18.9279 28.9466 19.8095 30.0342 19.8095Z" fill="white"/>
<path d="M59.1379 50.26H61.6859V44.002L64.3319 48.384H65.8719L68.5179 44.002V50.26H71.0659V38.85H69.0359L65.1019 45.234L61.1679 38.85H59.1379V50.26ZM73.0832 38.85V50.26H75.6312V38.85H73.0832ZM82.0876 38.57C79.5116 38.57 77.4676 39.802 77.4676 41.86C77.4676 44.002 78.8116 45.024 81.2896 45.486C83.3196 45.864 84.0896 46.228 84.0896 47.138C84.0896 47.88 83.3196 48.398 82.2836 48.398C80.8276 48.398 79.8756 47.67 79.7356 46.578H77.1176C77.2296 49.014 79.2876 50.54 82.1016 50.54C84.6496 50.54 86.7076 49.21 86.7076 47.026C86.7076 45.318 85.8116 44.016 83.1796 43.47C80.9536 43.008 80.0716 42.714 80.0716 41.86C80.0716 41.174 80.7296 40.698 81.9196 40.698C83.1376 40.698 83.8796 41.3 84.0336 42.294H86.6656C86.5396 40.124 84.6356 38.57 82.0876 38.57ZM92.6423 38.57C90.0663 38.57 88.0223 39.802 88.0223 41.86C88.0223 44.002 89.3663 45.024 91.8443 45.486C93.8743 45.864 94.6443 46.228 94.6443 47.138C94.6443 47.88 93.8743 48.398 92.8383 48.398C91.3823 48.398 90.4303 47.67 90.2903 46.578H87.6723C87.7843 49.014 89.8423 50.54 92.6563 50.54C95.2043 50.54 97.2623 49.21 97.2623 47.026C97.2623 45.318 96.3663 44.016 93.7343 43.47C91.5083 43.008 90.6263 42.714 90.6263 41.86C90.6263 41.174 91.2843 40.698 92.4743 40.698C93.6923 40.698 94.4343 41.3 94.5883 42.294H97.2203C97.0943 40.124 95.1903 38.57 92.6423 38.57ZM98.759 38.85V50.26H101.307V38.85H98.759ZM103.325 50.26H105.873V43.26L111.571 50.12H113.699V38.71H111.151V45.71L105.453 38.85H103.325V50.26ZM121.312 38.556C117.798 38.556 115.208 41.09 115.208 44.548C115.208 48.006 117.798 50.54 121.312 50.54C124.77 50.54 127.36 48.006 127.36 44.548V43.876H121.158V46.032H124.644C124.378 47.152 123.146 48.244 121.368 48.244C119.296 48.244 117.756 46.69 117.756 44.548C117.756 42.42 119.296 40.894 121.368 40.894C122.754 40.894 123.832 41.538 124.308 42.378H127.108C126.45 40.236 124.294 38.556 121.312 38.556Z" fill="#D8D8D8"/>
</g>
</svg>
