<svg width="20" height="97" viewBox="0 0 20 97" fill="none" xmlns="http://www.w3.org/2000/svg">
<path d="M17.6707 13.1484C19.334 11.3876 19.4981 8.62481 17.8706 6.83334C16.6456 5.48524 14.8592 5.05724 13.2753 5.4955C13.0472 5.55957 12.8345 5.37248 12.8653 5.13925C13.0857 3.50924 12.4193 1.79721 10.9174 0.766921C8.92093 -0.604237 6.20681 -0.0660249 4.687 1.81772C3.95657 2.72242 3.46705 3.86805 3.46449 5.20845C3.45937 7.18189 3.4363 11.9669 3.42092 14.5913C3.4158 15.537 4.25131 16.2649 5.18677 16.1341C7.783 15.7651 12.5218 15.0936 14.4773 14.8219C15.8049 14.6374 16.8737 13.9967 17.6707 13.1509V13.1484Z" fill="#9ED1EE"/>
<path d="M17.6697 50.1484C19.3331 48.3876 19.4971 45.6248 17.8696 43.8333C16.6446 42.4852 14.8582 42.0572 13.2743 42.4955C13.0462 42.5596 12.8335 42.3725 12.8643 42.1393C13.0847 40.5092 12.4183 38.7972 10.9165 37.7669C8.91996 36.3958 6.20583 36.934 4.68602 38.8177C3.95559 39.7224 3.46608 40.868 3.46351 42.2085C3.45839 44.1819 3.43532 48.9669 3.41995 51.5913C3.41482 52.537 4.25033 53.2649 5.18579 53.1341C7.78202 52.7651 12.5208 52.0936 14.4764 51.8219C15.8039 51.6374 16.8727 50.9967 17.6697 50.1509V50.1484Z" fill="#29ABE2"/>
<path d="M17.6697 87.1484C19.3331 85.3876 19.4971 82.6248 17.8696 80.8333C16.6446 79.4852 14.8582 79.0572 13.2743 79.4955C13.0462 79.5596 12.8335 79.3725 12.8643 79.1393C13.0847 77.5092 12.4183 75.7972 10.9165 74.7669C8.91996 73.3958 6.20583 73.934 4.68602 75.8177C3.95559 76.7224 3.46608 77.868 3.46351 79.2085C3.45839 81.1819 3.43532 85.9669 3.41995 88.5913C3.41482 89.537 4.25033 90.2649 5.18579 90.1341C7.78202 89.7651 12.5208 89.0936 14.4763 88.8219C15.8039 88.6374 16.8727 87.9967 17.6697 87.1509V87.1484Z" fill="#3266EB"/>
<path d="M0.00910154 1.17201C0.00869549 0.525787 0.532203 0.00157245 1.17842 0.00111021C1.82473 0.000647916 2.34902 0.524233 2.34942 1.17053L2.40963 96.9983L0.0693145 97L0.00910154 1.17201Z" fill="url(#paint0_linear_4961_1312)"/>
<defs>
<linearGradient id="paint0_linear_4961_1312" x1="1.17434" y1="0.00111313" x2="1.24372" y2="96.9992" gradientUnits="userSpaceOnUse">
<stop stop-color="#9ED1EE"/>
<stop offset="1" stop-color="#3266EB"/>
</linearGradient>
</defs>
</svg>
