<svg width="17" height="13" viewBox="0 0 17 13" fill="none" xmlns="http://www.w3.org/2000/svg">
<path d="M9 4.625C9.08264 4.6168 9.16528 4.61406 9.24792 4.61406C10.3487 4.61406 10.5554 4.07011 11.0245 4.92157C11.2219 5.28003 11.3333 5.68835 11.3333 6.125C11.3333 7.57422 10.0642 8.75 8.5 8.75C7.71146 8.75 7.00848 8.4611 6.5 7.9932C5.98268 7.51716 6.48819 8.08554 6.48819 7.35469C6.48819 7.27812 6.49115 7.20156 6.5 7.125C6.77448 7.24805 6.66059 6.625 7 6.625C8.04184 6.625 8.5 6.59023 8.5 5.625C8.5 5.31055 9.13281 4.8793 9 4.625ZM14.1844 2.20391C15.5656 3.39062 16.4894 4.78789 16.9262 5.78867C17.0236 6.00469 17.0236 6.24531 16.9262 6.46133C16.4894 7.4375 15.5656 8.83477 14.1844 10.0461C12.7943 11.2438 10.8847 12.25 8.5 12.25C6.11528 12.25 4.20573 11.2438 2.81622 10.0461C1.43497 8.83477 0.511773 7.4375 0.0726362 6.46133C0.0246873 6.35476 0 6.24045 0 6.125C0 6.00955 0.0246873 5.89524 0.0726362 5.78867C0.511773 4.78789 1.43497 3.39062 2.81622 2.20391C4.20573 1.00734 6.11528 0 8.5 0C10.8847 0 12.7943 1.00734 14.1844 2.20391ZM8.5 2.1875C6.15365 2.1875 4.25 3.95117 4.25 6.125C4.25 8.29883 6.15365 10.0625 8.5 10.0625C10.8464 10.0625 12.75 8.29883 12.75 6.125C12.75 3.95117 10.8464 2.1875 8.5 2.1875Z" fill="#29ABE2"/>
<path fill-rule="evenodd" clip-rule="evenodd" d="M16.5573 0.503595C16.8177 0.894195 16.7122 1.42193 16.3216 1.68233L1.32159 11.6823C0.930986 11.9427 0.403247 11.8372 0.142848 11.4466C-0.117552 11.056 -0.0120042 10.5282 0.378595 10.2678L15.3786 0.267848C15.7692 0.00744799 16.2969 0.112996 16.5573 0.503595Z" fill="#29ABE2"/>
</svg>
