<svg width="91" height="94" viewBox="0 0 91 94" fill="none" xmlns="http://www.w3.org/2000/svg">
<g opacity="0.15">
<path d="M80.239 0C80.4775 0 80.6717 0.194226 80.6717 0.432847V9.4394H79.8008V0.432847C79.8063 0.194226 80.0005 0 80.239 0Z" fill="#3266EB"/>
<path d="M81.21 0.998703V5.21619L86.5685 2.60801L82.1141 0.438221C81.6981 0.232896 81.2155 0.538109 81.2155 0.998703H81.21Z" fill="#3266EB"/>
<path d="M91.0004 6.6535V93.9999H46.6459C41.7478 93.9999 37.7705 90.021 37.7705 85.1209V59.8993C37.7705 30.51 61.623 6.64795 91.0004 6.64795V6.6535Z" fill="#3266EB"/>
<path d="M55.3604 69.5552L91.0004 93.9999V66.0757L77.2048 55.3101H55.3604V69.5552Z" fill="#215AD8"/>
<path d="M54.4561 55.3045V58.9504C54.4561 59.45 54.8609 59.855 55.3602 59.855H57.9452C58.4445 59.855 58.8494 59.45 58.8494 58.9504V55.3045C58.8494 54.805 58.4445 54.4 57.9452 54.4H55.3602C54.8609 54.4 54.4561 54.805 54.4561 55.3045Z" fill="#E1FBFF"/>
<path d="M63.6309 55.3099V58.9558C63.6309 59.4554 64.0357 59.8604 64.535 59.8604H67.12C67.6193 59.8604 68.0242 59.4554 68.0242 58.9558V55.3099C68.0242 54.8103 67.6193 54.4054 67.12 54.4054H64.535C64.0357 54.4054 63.6309 54.8103 63.6309 55.3099Z" fill="#E1FBFF"/>
<path d="M72.8115 55.3099V58.9558C72.8115 59.4554 73.2163 59.8604 73.7157 59.8604H76.3006C76.8 59.8604 77.2048 59.4554 77.2048 58.9558V55.3099C77.2048 54.8103 76.8 54.4054 76.3006 54.4054H73.7157C73.2163 54.4054 72.8115 54.8103 72.8115 55.3099Z" fill="#E1FBFF"/>
<path d="M54.4561 65.0047V68.6506C54.4561 69.1502 54.8609 69.5552 55.3602 69.5552H57.9452C58.4445 69.5552 58.8493 69.1502 58.8493 68.6506V65.0047C58.8493 64.5052 58.4445 64.1002 57.9452 64.1002H55.3602C54.8609 64.1002 54.4561 64.5052 54.4561 65.0047Z" fill="#E1FBFF"/>
<path d="M63.6309 65.0047V68.6506C63.6309 69.1502 64.0357 69.5552 64.535 69.5552H67.12C67.6193 69.5552 68.0242 69.1502 68.0242 68.6506V65.0047C68.0242 64.5052 67.6193 64.1002 67.12 64.1002H64.535C64.0357 64.1002 63.6309 64.5052 63.6309 65.0047Z" fill="#E1FBFF"/>
<path d="M72.8115 65.0047V68.6506C72.8115 69.1502 73.2163 69.5552 73.7157 69.5552H76.3006C76.8 69.5552 77.2048 69.1502 77.2048 68.6506V65.0047C77.2048 64.5052 76.8 64.1002 76.3006 64.1002H73.7157C73.2163 64.1002 72.8115 64.5052 72.8115 65.0047Z" fill="#E1FBFF"/>
<path d="M77.2044 6.65381H8.87534C3.97172 6.65381 0 10.6271 0 15.5327V56.287C1.29802 53.0684 3.98281 50.1494 8.953 50.1494H36.5387C39.5341 29.3228 56.3196 11.1654 77.2044 6.65381Z" fill="#2DB9EA"/>
<path d="M17.7838 28.3628C18.9755 28.3628 19.9416 27.3963 19.9416 26.2041C19.9416 25.0119 18.9755 24.0454 17.7838 24.0454C16.5921 24.0454 15.626 25.0119 15.626 26.2041C15.626 27.3963 16.5921 28.3628 17.7838 28.3628Z" fill="white"/>
<path d="M25.3609 28.3628C26.5527 28.3628 27.5188 27.3963 27.5188 26.2041C27.5188 25.0119 26.5527 24.0454 25.3609 24.0454C24.1692 24.0454 23.2031 25.0119 23.2031 26.2041C23.2031 27.3963 24.1692 28.3628 25.3609 28.3628Z" fill="white"/>
<path d="M32.9107 28.3628C34.1025 28.3628 35.0686 27.3963 35.0686 26.2041C35.0686 25.0119 34.1025 24.0454 32.9107 24.0454C31.719 24.0454 30.7529 25.0119 30.7529 26.2041C30.7529 27.3963 31.719 28.3628 32.9107 28.3628Z" fill="white"/>
</g>
</svg>
