<svg width="94" height="90" viewBox="0 0 94 90" fill="none" xmlns="http://www.w3.org/2000/svg">
<g opacity="0.2">
<path d="M14.9967 10.2666C12.6833 10.2666 10.8047 12.1408 10.8047 14.4586V49.1643L14.6531 44.3548H41.575V74.7424C41.575 77.6472 43.9319 79.9998 46.8367 79.9998H77.7504C80.6553 79.9998 83.0078 77.6472 83.0078 74.7424V10.2666H14.9967Z" fill="white"/>
<path d="M14.9967 10.2666C12.6833 10.2666 10.8047 12.1408 10.8047 14.4586V49.1643L14.6531 44.3548H41.575V74.7424C41.575 77.6472 43.9319 79.9998 46.8367 79.9998H77.7504C80.6553 79.9998 83.0078 77.6472 83.0078 74.7424V10.2666H14.9967Z" fill="white"/>
<g filter="url(#filter0_d_751_2410)">
<path d="M83.0337 10.1973H15.0182C12.7047 10.1973 10.8262 12.0715 10.8262 14.3893V49.0949L14.6746 44.2855H78.846C81.1594 44.2855 83.038 42.4112 83.038 40.0935V10.1973H83.0337Z" fill="url(#paint0_linear_751_2410)"/>
</g>
<path d="M83.0169 10.2666H29.8604V44.4113H83.0169V10.2666Z" fill="url(#paint1_linear_751_2410)"/>
<g opacity="0.6">
<path d="M75.3635 1C75.6288 1 75.8462 1.21743 75.8462 1.48269V10.2711H74.8809V1.48269C74.8809 1.21743 75.0983 1 75.3635 1Z" fill="#29ABE2"/>
<path d="M76.4375 2.10876V6.78344L82.3733 3.89166L77.4377 1.48692C76.9767 1.26079 76.4418 1.59998 76.4418 2.10876H76.4375Z" fill="#29ABE2"/>
</g>
<g opacity="0.68" filter="url(#filter1_bd_751_2410)">
<path d="M41.7055 74.738C41.7055 77.6429 44.0581 79.9954 46.9629 79.9954H77.8767C80.7815 79.9954 83.1341 77.6429 83.1341 74.738V10.2666L75.5806 10.2883C56.8732 10.2753 41.7012 25.4387 41.7012 44.1461V74.7337L41.7055 74.738Z" fill="url(#paint2_linear_751_2410)" fill-opacity="0.4"/>
</g>
<g opacity="0.89">
<path opacity="0.5" d="M55.2471 56.4487V59.0143C55.2471 59.3025 55.4807 59.5361 55.7689 59.5361H57.4474C57.7356 59.5361 57.9693 59.3025 57.9693 59.0143V56.4487C57.9693 56.1605 57.7356 55.9268 57.4474 55.9268H55.7689C55.4807 55.9268 55.2471 56.1605 55.2471 56.4487Z" fill="white"/>
<path opacity="0.5" d="M55.251 51.4042V53.9699C55.251 54.2581 55.4846 54.4917 55.7728 54.4917H57.4513C57.7395 54.4917 57.9732 54.2581 57.9732 53.9699V51.4042C57.9732 51.116 57.7395 50.8824 57.4513 50.8824H55.7728C55.4846 50.8824 55.251 51.116 55.251 51.4042Z" fill="white"/>
<path opacity="0.5" d="M60.9346 56.4526V59.0182C60.9346 59.3064 61.1682 59.54 61.4564 59.54H63.1349C63.4231 59.54 63.6568 59.3064 63.6568 59.0182V56.4526C63.6568 56.1644 63.4231 55.9308 63.1349 55.9308H61.4564C61.1682 55.9308 60.9346 56.1644 60.9346 56.4526Z" fill="white"/>
<path opacity="0.5" d="M60.9395 51.4086V53.9743C60.9395 54.2625 61.1731 54.4961 61.4613 54.4961H63.1398C63.428 54.4961 63.6616 54.2625 63.6616 53.9743V51.4086C63.6616 51.1204 63.428 50.8868 63.1398 50.8868H61.4613C61.1731 50.8868 60.9395 51.1204 60.9395 51.4086Z" fill="white"/>
<path opacity="0.5" d="M66.623 56.4487V59.0143C66.623 59.3025 66.8567 59.5361 67.1449 59.5361H68.8234C69.1116 59.5361 69.3452 59.3025 69.3452 59.0143V56.4487C69.3452 56.1605 69.1116 55.9268 68.8234 55.9268H67.1449C66.8567 55.9268 66.623 56.1605 66.623 56.4487Z" fill="white"/>
<path opacity="0.5" d="M66.623 51.4086V53.9743C66.623 54.2625 66.8567 54.4961 67.1449 54.4961H68.8234C69.1116 54.4961 69.3452 54.2625 69.3452 53.9743V51.4086C69.3452 51.1204 69.1116 50.8868 68.8234 50.8868H67.1449C66.8567 50.8868 66.623 51.1204 66.623 51.4086Z" fill="white"/>
<path opacity="0.5" d="M56.3946 65.3936H61.7955V78.7175H55.251V66.5372C55.251 65.9067 55.7641 65.3936 56.3946 65.3936Z" fill="white"/>
<path opacity="0.5" d="M62.8652 65.3936H68.2009C68.8314 65.3936 69.3446 65.9067 69.3446 66.5372V78.7175H62.8652V65.3936Z" fill="white"/>
</g>
<g opacity="0.4" filter="url(#filter2_d_751_2410)">
<path d="M83.0337 10.1973H15.0182C12.7047 10.1973 10.8262 12.0715 10.8262 14.3893V49.0949L14.6746 44.2855H78.846C81.1594 44.2855 83.038 42.4112 83.038 40.0935V10.1973H83.0337Z" fill="url(#paint3_radial_751_2410)"/>
</g>
<g opacity="0.3" filter="url(#filter3_b_751_2410)">
<path d="M41.7055 74.738C41.7055 77.6429 44.0581 79.9954 46.9629 79.9954H77.8767C80.7815 79.9954 83.1341 77.6429 83.1341 74.738V10.2666L75.5806 10.2883C56.8732 10.2753 41.7012 25.4387 41.7012 44.1461V74.7337L41.7055 74.738Z" fill="url(#paint4_linear_751_2410)" fill-opacity="0.9"/>
</g>
<g opacity="0.75">
<path d="M24.5328 28.3742C25.3686 28.3742 26.0461 27.6967 26.0461 26.8609C26.0461 26.0252 25.3686 25.3477 24.5328 25.3477C23.6971 25.3477 23.0195 26.0252 23.0195 26.8609C23.0195 27.6967 23.6971 28.3742 24.5328 28.3742Z" fill="white"/>
<path d="M29.859 28.3742C30.6948 28.3742 31.3723 27.6967 31.3723 26.8609C31.3723 26.0252 30.6948 25.3477 29.859 25.3477C29.0232 25.3477 28.3457 26.0252 28.3457 26.8609C28.3457 27.6967 29.0232 28.3742 29.859 28.3742Z" fill="white"/>
<path d="M35.1647 28.3742C36.0004 28.3742 36.678 27.6967 36.678 26.8609C36.678 26.0252 36.0004 25.3477 35.1647 25.3477C34.3289 25.3477 33.6514 26.0252 33.6514 26.8609C33.6514 27.6967 34.3289 28.3742 35.1647 28.3742Z" fill="white"/>
</g>
</g>
<defs>
<filter id="filter0_d_751_2410" x="0.826172" y="0.197266" width="92.2119" height="58.8975" filterUnits="userSpaceOnUse" color-interpolation-filters="sRGB">
<feFlood flood-opacity="0" result="BackgroundImageFix"/>
<feColorMatrix in="SourceAlpha" type="matrix" values="0 0 0 0 0 0 0 0 0 0 0 0 0 0 0 0 0 0 127 0" result="hardAlpha"/>
<feOffset/>
<feGaussianBlur stdDeviation="5"/>
<feColorMatrix type="matrix" values="0 0 0 0 0.160784 0 0 0 0 0.670588 0 0 0 0 0.886275 0 0 0 0.25 0"/>
<feBlend mode="normal" in2="BackgroundImageFix" result="effect1_dropShadow_751_2410"/>
<feBlend mode="normal" in="SourceGraphic" in2="effect1_dropShadow_751_2410" result="shape"/>
</filter>
<filter id="filter1_bd_751_2410" x="31.7012" y="0.266602" width="61.4326" height="89.729" filterUnits="userSpaceOnUse" color-interpolation-filters="sRGB">
<feFlood flood-opacity="0" result="BackgroundImageFix"/>
<feGaussianBlur in="BackgroundImage" stdDeviation="5"/>
<feComposite in2="SourceAlpha" operator="in" result="effect1_backgroundBlur_751_2410"/>
<feColorMatrix in="SourceAlpha" type="matrix" values="0 0 0 0 0 0 0 0 0 0 0 0 0 0 0 0 0 0 127 0" result="hardAlpha"/>
<feOffset/>
<feGaussianBlur stdDeviation="5"/>
<feColorMatrix type="matrix" values="0 0 0 0 0.160784 0 0 0 0 0.670588 0 0 0 0 0.886275 0 0 0 0.75 0"/>
<feBlend mode="normal" in2="effect1_backgroundBlur_751_2410" result="effect2_dropShadow_751_2410"/>
<feBlend mode="normal" in="SourceGraphic" in2="effect2_dropShadow_751_2410" result="shape"/>
</filter>
<filter id="filter2_d_751_2410" x="0.826172" y="0.197266" width="92.2119" height="58.8975" filterUnits="userSpaceOnUse" color-interpolation-filters="sRGB">
<feFlood flood-opacity="0" result="BackgroundImageFix"/>
<feColorMatrix in="SourceAlpha" type="matrix" values="0 0 0 0 0 0 0 0 0 0 0 0 0 0 0 0 0 0 127 0" result="hardAlpha"/>
<feOffset/>
<feGaussianBlur stdDeviation="5"/>
<feColorMatrix type="matrix" values="0 0 0 0 0.160784 0 0 0 0 0.670588 0 0 0 0 0.886275 0 0 0 0.25 0"/>
<feBlend mode="normal" in2="BackgroundImageFix" result="effect1_dropShadow_751_2410"/>
<feBlend mode="normal" in="SourceGraphic" in2="effect1_dropShadow_751_2410" result="shape"/>
</filter>
<filter id="filter3_b_751_2410" x="31.7012" y="0.266602" width="61.4326" height="89.729" filterUnits="userSpaceOnUse" color-interpolation-filters="sRGB">
<feFlood flood-opacity="0" result="BackgroundImageFix"/>
<feGaussianBlur in="BackgroundImage" stdDeviation="5"/>
<feComposite in2="SourceAlpha" operator="in" result="effect1_backgroundBlur_751_2410"/>
<feBlend mode="normal" in="SourceGraphic" in2="effect1_backgroundBlur_751_2410" result="shape"/>
</filter>
<linearGradient id="paint0_linear_751_2410" x1="66.3527" y1="34.6969" x2="-3.52836" y2="16.5244" gradientUnits="userSpaceOnUse">
<stop stop-color="#29ABE2" stop-opacity="0.4"/>
<stop offset="0.06" stop-color="#3EB3E4" stop-opacity="0.46"/>
<stop offset="0.27" stop-color="#81CDEE" stop-opacity="0.65"/>
<stop offset="0.46" stop-color="#B7E2F5" stop-opacity="0.8"/>
<stop offset="0.62" stop-color="#DEF2FA" stop-opacity="0.91"/>
<stop offset="0.74" stop-color="#F6FBFD" stop-opacity="0.98"/>
<stop offset="0.81" stop-color="white"/>
</linearGradient>
<linearGradient id="paint1_linear_751_2410" x1="29.8604" y1="27.339" x2="83.0125" y2="27.339" gradientUnits="userSpaceOnUse">
<stop stop-color="white" stop-opacity="0"/>
<stop offset="1" stop-color="white"/>
</linearGradient>
<linearGradient id="paint2_linear_751_2410" x1="76.6111" y1="54.1173" x2="45.7365" y2="28.6783" gradientUnits="userSpaceOnUse">
<stop stop-color="#29ABE2"/>
<stop offset="0.74" stop-color="#F8FCFF" stop-opacity="0.98"/>
<stop offset="0.81" stop-color="white"/>
</linearGradient>
<radialGradient id="paint3_radial_751_2410" cx="0" cy="0" r="1" gradientUnits="userSpaceOnUse" gradientTransform="translate(45.4187 39.6978) rotate(-142.433) scale(62.2947 229.884)">
<stop stop-color="#29ABE2" stop-opacity="0.4"/>
<stop offset="0.06" stop-color="#3EB3E4" stop-opacity="0.46"/>
<stop offset="0.27" stop-color="#81CDEE" stop-opacity="0.65"/>
<stop offset="0.46" stop-color="#B7E2F5" stop-opacity="0.8"/>
<stop offset="0.62" stop-color="#DEF2FA" stop-opacity="0.91"/>
<stop offset="0.74" stop-color="#F6FBFD" stop-opacity="0.98"/>
<stop offset="0.81" stop-color="white"/>
</radialGradient>
<linearGradient id="paint4_linear_751_2410" x1="79.0986" y1="44.9853" x2="45.7365" y2="28.6783" gradientUnits="userSpaceOnUse">
<stop stop-color="#14A7E6"/>
<stop offset="0.74" stop-color="#F8FCFF" stop-opacity="0.98"/>
<stop offset="0.81" stop-color="white"/>
</linearGradient>
</defs>
</svg>
