<svg width="25" height="102" viewBox="0 0 25 102" fill="none" xmlns="http://www.w3.org/2000/svg">
<path d="M22.6044 16.8546C24.7366 14.5975 24.9468 11.0559 22.8606 8.75949C21.2903 7.0314 19.0004 6.48275 16.97 7.04454C16.6776 7.12668 16.405 6.88685 16.4444 6.58788C16.7269 4.49841 15.8727 2.3038 13.9475 0.983098C11.3883 -0.774557 7.90908 -0.0846357 5.96088 2.33009C5.02456 3.48981 4.39706 4.95836 4.39377 6.67659C4.3872 9.2063 4.35763 15.34 4.33792 18.7042C4.33135 19.9165 5.40237 20.8495 6.60152 20.682C9.92956 20.2089 16.0042 19.3481 18.5109 18.9999C20.2127 18.7633 21.5827 17.942 22.6044 16.8578V16.8546Z" fill="#9ED1EE"/>
<path d="M0 1.5C0 0.671574 0.671573 0 1.5 0C2.32843 0 3 0.671573 3 1.5V102H0V1.5Z" fill="#9ED1EE"/>
</svg>
