<svg xmlns="http://www.w3.org/2000/svg" viewBox="0 0 174.31 174.31"><defs><style>.cls-1{fill:#f1f5f9;}.cls-2{fill:#a8cadd;}.cls-3{fill:#fff;}</style></defs><g id="Layer_1" data-name="Layer 1"><circle class="cls-1" cx="87.15" cy="87.15" r="85.09"/><path class="cls-2" d="M108.58,169.52A85.12,85.12,0,0,0,172,92.94L113.33,41.8l.09,42L86.07,41.8,84.62,53.85,75.29,41.8l-.58,12.05L64.94,41.8v39L74.16,83l-3.27,61.21Z"/><path class="cls-3" d="M84.41,41.14H83.5A2.47,2.47,0,0,0,81,43.61V76.73a2.47,2.47,0,0,1-2.47,2.47h0a2.46,2.46,0,0,1-2.47-2.47V43.61a2.47,2.47,0,0,0-2.47-2.47h-.91a2.47,2.47,0,0,0-2.47,2.47V77A2.25,2.25,0,0,1,68,79.2h0A2.25,2.25,0,0,1,65.74,77V43.61a2.46,2.46,0,0,0-2.47-2.47h-.9a2.47,2.47,0,0,0-2.47,2.47v39a2.48,2.48,0,0,0,2.47,2.48h5.4a2.46,2.46,0,0,1,2.47,2.47v55.05A2.47,2.47,0,0,0,72.71,145h.91a2.47,2.47,0,0,0,2.47-2.47v-55a2.46,2.46,0,0,1,2.47-2.47h5.88a2.47,2.47,0,0,0,2.47-2.48l0-39A2.47,2.47,0,0,0,84.41,41.14Z"/><path class="cls-3" d="M111.49,145h0a2.92,2.92,0,0,0,2.92-2.92V44.06a2.92,2.92,0,0,0-2.92-2.92h-2.93s-13.27.52-13.27,22c0,18.18,13.27,23.53,13.27,23.53v55.41A2.93,2.93,0,0,0,111.49,145Z"/></g></svg>