<svg width="16" height="20" viewBox="0 0 16 20" fill="none" xmlns="http://www.w3.org/2000/svg">
<path d="M8.2375 4.61538C9.125 4.61538 10.2375 4.00509 10.9 3.19135C11.5 2.45391 11.9375 1.42403 11.9375 0.394151C11.9375 0.25429 11.925 0.114431 11.9 0C10.9125 0.0381437 9.725 0.673871 9.0125 1.52575C8.45 2.17419 7.9375 3.19135 7.9375 4.23395C7.9375 4.38652 7.9625 4.5391 7.975 4.58996C8.0375 4.60267 8.1375 4.61538 8.2375 4.61538ZM5.1125 20C6.325 20 6.8625 19.1736 8.375 19.1736C9.9125 19.1736 10.25 19.9746 11.6 19.9746C12.925 19.9746 13.8125 18.7285 14.65 17.5079C15.5875 16.1093 15.975 14.7362 16 14.6726C15.9125 14.6472 13.375 13.5919 13.375 10.6294C13.375 8.06103 15.375 6.90401 15.4875 6.815C14.1625 4.88239 12.15 4.83153 11.6 4.83153C10.1125 4.83153 8.9 5.74698 8.1375 5.74698C7.3125 5.74698 6.225 4.88239 4.9375 4.88239C2.4875 4.88239 0 6.94215 0 10.8328C0 13.2486 0.925 15.8042 2.0625 17.4571C3.0375 18.8557 3.8875 20 5.1125 20Z" fill="white"/>
</svg>
