<svg width="187" height="121" viewBox="0 0 187 121" fill="none" xmlns="http://www.w3.org/2000/svg">
<g filter="url(#filter0_d_489_1239)">
<path d="M176.05 21.1499H19.64C14.32 21.1499 10 25.4599 10 30.7899V110.6L18.85 99.5399H166.42C171.74 99.5399 176.06 95.2299 176.06 89.8999V21.1499H176.05Z" fill="url(#paint0_linear_489_1239)"/>
</g>
<g opacity="0.6">
<path d="M158.41 0C159.02 0 159.52 0.500001 159.52 1.11V21.32H157.3V1.11C157.3 0.500001 157.8 0 158.41 0Z" fill="#29ABE2"/>
<path d="M160.88 2.54998V13.3L174.53 6.64998L163.18 1.11998C162.12 0.599983 160.89 1.37998 160.89 2.54998H160.88Z" fill="#29ABE2"/>
</g>
<g opacity="0.4" filter="url(#filter1_d_489_1239)">
<path d="M176.05 21.1499H19.64C14.32 21.1499 10 25.4599 10 30.7899V110.6L18.85 99.5399H166.42C171.74 99.5399 176.06 95.2299 176.06 89.8999V21.1499H176.05Z" fill="url(#paint1_radial_489_1239)"/>
</g>
<g opacity="0.75">
<path d="M41.5203 62.95C43.4422 62.95 45.0003 61.3919 45.0003 59.47C45.0003 57.548 43.4422 55.99 41.5203 55.99C39.5983 55.99 38.0403 57.548 38.0403 59.47C38.0403 61.3919 39.5983 62.95 41.5203 62.95Z" fill="white"/>
<path d="M53.7703 62.95C55.6922 62.95 57.2503 61.3919 57.2503 59.47C57.2503 57.548 55.6922 55.99 53.7703 55.99C51.8483 55.99 50.2903 57.548 50.2903 59.47C50.2903 61.3919 51.8483 62.95 53.7703 62.95Z" fill="white"/>
<path d="M65.9702 62.95C67.8922 62.95 69.4502 61.3919 69.4502 59.47C69.4502 57.548 67.8922 55.99 65.9702 55.99C64.0483 55.99 62.4902 57.548 62.4902 59.47C62.4902 61.3919 64.0483 62.95 65.9702 62.95Z" fill="white"/>
</g>
<defs>
<filter id="filter0_d_489_1239" x="0" y="11.1499" width="186.06" height="109.45" filterUnits="userSpaceOnUse" color-interpolation-filters="sRGB">
<feFlood flood-opacity="0" result="BackgroundImageFix"/>
<feColorMatrix in="SourceAlpha" type="matrix" values="0 0 0 0 0 0 0 0 0 0 0 0 0 0 0 0 0 0 127 0" result="hardAlpha"/>
<feOffset/>
<feGaussianBlur stdDeviation="5"/>
<feColorMatrix type="matrix" values="0 0 0 0 0.160784 0 0 0 0 0.670588 0 0 0 0 0.886275 0 0 0 0.25 0"/>
<feBlend mode="normal" in2="BackgroundImageFix" result="effect1_dropShadow_489_1239"/>
<feBlend mode="normal" in="SourceGraphic" in2="effect1_dropShadow_489_1239" result="shape"/>
</filter>
<filter id="filter1_d_489_1239" x="0" y="11.1499" width="186.06" height="109.45" filterUnits="userSpaceOnUse" color-interpolation-filters="sRGB">
<feFlood flood-opacity="0" result="BackgroundImageFix"/>
<feColorMatrix in="SourceAlpha" type="matrix" values="0 0 0 0 0 0 0 0 0 0 0 0 0 0 0 0 0 0 127 0" result="hardAlpha"/>
<feOffset/>
<feGaussianBlur stdDeviation="5"/>
<feColorMatrix type="matrix" values="0 0 0 0 0.160784 0 0 0 0 0.670588 0 0 0 0 0.886275 0 0 0 0.25 0"/>
<feBlend mode="normal" in2="BackgroundImageFix" result="effect1_dropShadow_489_1239"/>
<feBlend mode="normal" in="SourceGraphic" in2="effect1_dropShadow_489_1239" result="shape"/>
</filter>
<linearGradient id="paint0_linear_489_1239" x1="137.69" y1="77.4899" x2="-23.01" y2="35.6999" gradientUnits="userSpaceOnUse">
<stop stop-color="#29ABE2" stop-opacity="0.4"/>
<stop offset="0.06" stop-color="#3EB3E4" stop-opacity="0.46"/>
<stop offset="0.27" stop-color="#81CDEE" stop-opacity="0.65"/>
<stop offset="0.46" stop-color="#B7E2F5" stop-opacity="0.8"/>
<stop offset="0.62" stop-color="#DEF2FA" stop-opacity="0.91"/>
<stop offset="0.74" stop-color="#F6FBFD" stop-opacity="0.98"/>
<stop offset="0.81" stop-color="white"/>
</linearGradient>
<radialGradient id="paint1_radial_489_1239" cx="0" cy="0" r="1" gradientUnits="userSpaceOnUse" gradientTransform="translate(89.5498 88.9899) rotate(-142.433) scale(143.254 528.647)">
<stop stop-color="#29ABE2" stop-opacity="0.4"/>
<stop offset="0.06" stop-color="#3EB3E4" stop-opacity="0.46"/>
<stop offset="0.27" stop-color="#81CDEE" stop-opacity="0.65"/>
<stop offset="0.46" stop-color="#B7E2F5" stop-opacity="0.8"/>
<stop offset="0.62" stop-color="#DEF2FA" stop-opacity="0.91"/>
<stop offset="0.74" stop-color="#F6FBFD" stop-opacity="0.98"/>
<stop offset="0.81" stop-color="white"/>
</radialGradient>
</defs>
</svg>
