<svg width="26" height="17" viewBox="0 0 26 17" fill="none" xmlns="http://www.w3.org/2000/svg">
<path d="M25.4481 0.190796H2.92548C1.30915 0.190796 0 1.499 0 3.11416V16.5324C0.427852 15.4727 1.31281 14.5116 2.95108 14.5116H12.0439C13.0312 7.65451 18.564 1.67623 25.4481 0.190796V0.190796Z" fill="#2DB9EA"/>
<path d="M5.86189 7.33823C6.25471 7.33823 6.57315 7.02002 6.57315 6.62749C6.57315 6.23496 6.25471 5.91675 5.86189 5.91675C5.46908 5.91675 5.15063 6.23496 5.15063 6.62749C5.15063 7.02002 5.46908 7.33823 5.86189 7.33823Z" fill="white"/>
<path d="M8.35945 7.33823C8.75227 7.33823 9.07071 7.02002 9.07071 6.62749C9.07071 6.23496 8.75227 5.91675 8.35945 5.91675C7.96663 5.91675 7.64819 6.23496 7.64819 6.62749C7.64819 7.02002 7.96663 7.33823 8.35945 7.33823Z" fill="white"/>
<path d="M10.848 7.33823C11.2408 7.33823 11.5592 7.02002 11.5592 6.62749C11.5592 6.23496 11.2408 5.91675 10.848 5.91675C10.4552 5.91675 10.1367 6.23496 10.1367 6.62749C10.1367 7.02002 10.4552 7.33823 10.848 7.33823Z" fill="white"/>
</svg>
